<svg width="25" height="25" viewBox="0 0 25 25" fill="none" xmlns="http://www.w3.org/2000/svg">
<path d="M3.04199 1.62646C1.94893 1.62646 1.04199 2.5334 1.04199 3.62646V5.62646V6.62646H3.04199V5.62646V3.62646H5.04199H6.04199V1.62646H5.04199H3.04199ZM18.042 1.62646V3.62646H19.042H21.042V5.62646V6.62646H23.042V5.62646V3.62646C23.042 2.5334 22.1351 1.62646 21.042 1.62646H19.042H18.042ZM12.042 4.62646C4.04199 4.62646 1.04199 12.6265 1.04199 12.6265C1.04199 12.6265 4.04199 20.6265 12.042 20.6265C20.042 20.6265 23.042 12.6265 23.042 12.6265C23.042 12.6265 20.042 4.62646 12.042 4.62646ZM12.042 6.62646C17.318 6.62646 19.9866 10.8936 20.8506 12.6226C19.9856 14.3396 17.297 18.6265 12.042 18.6265C6.76599 18.6265 4.0974 14.3594 3.2334 12.6304C4.0994 10.9134 6.78699 6.62646 12.042 6.62646ZM12.042 8.62646C9.83299 8.62646 8.04199 10.4175 8.04199 12.6265C8.04199 14.8355 9.83299 16.6265 12.042 16.6265C14.251 16.6265 16.042 14.8355 16.042 12.6265C16.042 10.4175 14.251 8.62646 12.042 8.62646ZM12.042 10.6265C13.147 10.6265 14.042 11.5215 14.042 12.6265C14.042 13.7315 13.147 14.6265 12.042 14.6265C10.937 14.6265 10.042 13.7315 10.042 12.6265C10.042 11.5215 10.937 10.6265 12.042 10.6265ZM1.04199 18.6265V19.6265V21.6265C1.04199 22.7195 1.94893 23.6265 3.04199 23.6265H5.04199H6.04199V21.6265H5.04199H3.04199V19.6265V18.6265H1.04199ZM21.042 18.6265V19.6265V21.6265H19.042H18.042V23.6265H19.042H21.042C22.1351 23.6265 23.042 22.7195 23.042 21.6265V19.6265V18.6265H21.042Z" fill="white"/>
</svg>
