<svg width="37" height="36" viewBox="0 0 37 36" fill="none" xmlns="http://www.w3.org/2000/svg">
<g clip-path="url(#clip0_2263_1824)">
<path d="M0.291992 20.1013V15.9345C0.319679 15.8735 0.341379 15.81 0.356786 15.7448C0.405776 15.3845 0.42316 15.0179 0.499543 14.6639C0.621229 14.1023 0.776102 13.5471 0.926234 12.9919C1.00472 12.7006 1.0948 12.4124 1.19331 12.1259C1.32079 11.7571 1.44564 11.3821 1.59998 11.0196C1.7812 10.5982 1.98137 10.1821 2.19366 9.77434C2.42861 9.32289 2.66776 8.87092 2.94011 8.44317C3.26671 7.93378 3.62071 7.43966 3.98734 6.95819C4.30341 6.54151 4.64476 6.14168 4.99507 5.75292C5.28901 5.42737 5.60614 5.12079 5.92484 4.82052C6.17242 4.58611 6.43529 4.36644 6.69657 4.14677C6.93625 3.94554 7.17488 3.74063 7.42932 3.55942C7.8755 3.24335 8.32484 2.92728 8.78893 2.63545C9.13239 2.41578 9.48849 2.21403 9.85145 2.0286C10.3493 1.77417 10.8523 1.52974 11.3644 1.30428C11.7162 1.14941 12.0834 1.02719 12.4485 0.902875C12.832 0.771708 13.2176 0.646334 13.6074 0.534131C13.9277 0.443525 14.2532 0.369776 14.5798 0.304456C14.8716 0.250197 15.1677 0.211743 15.4632 0.168547C15.7045 0.132199 15.9468 0.103226 16.1875 0.0658252C16.2776 0.0516022 16.3645 0.00471897 16.4509 0.0041922C17.6694 0.00103153 18.8873 0.00103153 20.1026 0.00103153C20.1469 -0.00145662 20.1913 0.000307372 20.2353 0.00629931C20.5161 0.0589771 20.7953 0.115869 21.0782 0.166967C21.5354 0.250197 21.9979 0.309723 22.4478 0.416133C22.8871 0.521488 23.3143 0.6732 23.7494 0.796466C24.4401 0.991374 25.0964 1.27057 25.7512 1.56082C26.5119 1.90011 27.2462 2.29577 27.9479 2.74449C28.3925 3.02632 28.8181 3.34028 29.2358 3.66108C29.6741 3.99717 30.115 4.33536 30.5143 4.71464C31.0222 5.1977 31.4999 5.71552 31.9714 6.23387C32.2949 6.58813 32.599 6.95971 32.8822 7.34695C33.4743 8.16116 34.0004 9.02131 34.4557 9.9192C34.6248 10.2527 34.777 10.5951 34.9266 10.938C35.0288 11.1735 35.1173 11.4153 35.2043 11.657C35.2875 11.8883 35.3623 12.1232 35.4387 12.3566C35.5472 12.6848 35.6652 13.0098 35.7584 13.3417C35.8485 13.6625 35.9165 13.9896 35.9865 14.3157C36.0392 14.5691 36.0882 14.8246 36.1277 15.0806C36.1688 15.3487 36.1941 15.6189 36.2331 15.8876C36.2457 15.9772 36.2947 16.0646 36.2947 16.151C36.2989 17.3952 36.2998 18.6397 36.2973 19.8843C36.2988 19.9285 36.2964 19.9727 36.2899 20.0165C36.2373 20.2857 36.1788 20.5533 36.1319 20.8235C36.0687 21.1865 36.0334 21.5547 35.9523 21.9129C35.8659 22.2948 35.7416 22.6683 35.6304 23.0439C35.5461 23.3273 35.4655 23.6123 35.367 23.8867C35.1595 24.4546 34.9646 25.0293 34.717 25.5803C34.4852 26.0966 34.2055 26.5928 33.9237 27.0843C33.4896 27.8407 33.0113 28.5698 32.4434 29.234C31.9846 29.7714 31.5252 30.3092 31.0406 30.8228C30.7274 31.1421 30.3964 31.4433 30.0492 31.7252C29.6615 32.0539 29.269 32.3784 28.8587 32.6781C28.4762 32.9573 28.0769 33.216 27.6697 33.4583C27.1814 33.7501 26.6894 34.0409 26.1763 34.2848C25.6084 34.555 25.0174 34.7815 24.4322 35.0075C24.0244 35.1656 23.6056 35.2951 23.1884 35.429C22.9493 35.5043 22.7048 35.5638 22.4599 35.6175C22.1544 35.685 21.8472 35.7471 21.5386 35.7966C21.2009 35.8493 20.8601 35.8862 20.5213 35.9347C20.4661 35.9491 20.413 35.9707 20.3633 35.9989H16.1965C16.1241 35.9714 16.0496 35.9497 15.9737 35.9341C15.7466 35.9057 15.5154 35.9009 15.2889 35.8599C14.9396 35.7956 14.594 35.7103 14.2469 35.6328C13.9493 35.5659 13.6479 35.5111 13.3556 35.4258C13.0327 35.332 12.7155 35.2151 12.4 35.0992C11.8848 34.909 11.367 34.7246 10.8623 34.5103C10.4883 34.3522 10.1291 34.1552 9.77032 33.9629C9.41158 33.7707 9.04442 33.5852 8.70886 33.3556C8.08516 32.9315 7.46988 32.4927 6.87673 32.0291C6.39357 31.6564 5.936 31.2516 5.5071 30.8175C4.96187 30.2557 4.44734 29.6648 3.96575 29.0476C3.50482 28.4463 3.0785 27.8193 2.68884 27.1696C2.35749 26.6228 2.08304 26.0386 1.80753 25.4613C1.61737 25.0646 1.45459 24.6548 1.29498 24.2444C1.19858 23.9973 1.13378 23.7376 1.05108 23.4848C0.989974 23.2978 0.917279 23.116 0.860913 22.9269C0.822458 22.7984 0.808235 22.6635 0.773995 22.5334C0.717103 22.3148 0.633345 22.102 0.59647 21.8808C0.506391 21.3413 0.438437 20.7982 0.356259 20.2572C0.341343 20.2028 0.319757 20.1504 0.291992 20.1013H0.291992ZM7.89973 21.3724C7.8967 21.3686 7.89272 21.3657 7.88818 21.3639C7.88365 21.3621 7.87872 21.3616 7.87392 21.3624C7.87392 21.2681 7.86812 21.1738 7.8676 21.0795C7.86479 18.2412 7.8611 15.403 7.85653 12.5647C7.85653 12.1675 8.01457 11.8957 8.35697 11.6971C11.4983 9.87864 14.6376 8.05687 17.7747 6.23176C18.0966 6.04475 18.4111 6.04686 18.734 6.23176C21.8732 8.04388 25.0135 9.85353 28.1549 11.6607C28.5131 11.8662 28.6669 12.1506 28.6669 12.5536C28.6634 15.5696 28.6634 18.5856 28.6669 21.6016C28.6669 21.6679 28.6632 21.7348 28.6617 21.8012C28.6258 21.7522 28.5879 21.7053 28.5563 21.6542C26.8488 18.9905 25.1417 16.3262 23.435 13.6614C23.4002 13.6088 23.3633 13.5561 23.3238 13.4955C23.3078 13.5121 23.2929 13.5297 23.279 13.5482C22.6469 14.6244 22.0111 15.7006 21.3826 16.7805C21.3706 16.8135 21.3659 16.8488 21.3689 16.8838C21.3719 16.9188 21.3825 16.9528 21.4 16.9833C21.6971 17.4785 22.0026 17.9678 22.3055 18.4583C23.7019 20.7276 25.0992 22.9966 26.4977 25.2653L25.5294 25.8258C25.5189 25.8063 25.5094 25.7863 25.4973 25.7678C23.9005 23.2442 22.3026 20.7206 20.7036 18.197C20.6776 18.1602 20.6495 18.125 20.6193 18.0916C20.5888 18.1369 20.5667 18.1675 20.5466 18.2007C19.8358 19.4126 19.1247 20.6228 18.4132 21.8312C18.3558 21.9282 18.3658 21.9951 18.4242 22.0857C18.9788 22.9552 19.5322 23.8261 20.0846 24.6985C20.7477 25.7436 21.41 26.7893 22.0717 27.8354C22.0158 27.8713 21.9616 27.9092 21.9041 27.9408C20.8437 28.5577 19.7812 29.1703 18.724 29.7924C18.4263 29.9673 18.154 29.9673 17.8543 29.7924C16.5742 29.0455 15.2889 28.3085 14.0046 27.5694C13.9519 27.5394 13.8955 27.5167 13.8407 27.4936C13.8697 27.434 13.8934 27.3729 13.9292 27.316C15.3663 24.8707 16.8037 22.4258 18.2414 19.9812C18.9863 18.7138 19.7254 17.4432 20.4702 16.1763C21.1888 14.9541 21.9096 13.7333 22.6327 12.5136C22.6585 12.4699 22.6817 12.4251 22.7117 12.3708C21.4158 12.3708 20.1494 12.3708 18.8831 12.3761C18.8256 12.3761 18.7477 12.4414 18.714 12.4967C17.9765 13.7104 17.24 14.9259 16.5047 16.1431C15.6176 17.611 14.7303 19.0788 13.8428 20.5464C13.2945 21.4514 12.7419 22.3538 12.1935 23.2588C11.5888 24.2593 10.9854 25.26 10.3835 26.2609C10.216 26.5401 10.0516 26.8209 9.87936 27.1132C10.3508 27.3856 10.8123 27.6537 11.2759 27.9187C11.8469 28.2458 12.42 28.5698 12.9916 28.8953C13.0142 28.9111 13.0358 28.929 13.0595 28.9427C14.2184 29.6117 15.3737 30.2834 16.5363 30.9445C17.0104 31.2147 17.4613 31.5271 18.0355 31.5803C18.4859 31.6219 18.9147 31.5724 19.2997 31.3538C20.5161 30.6642 21.7229 29.9557 22.9308 29.2541C24.7637 28.19 26.5962 27.1254 28.4283 26.0602C28.7686 25.8621 29.13 25.6888 29.4376 25.4481C30.0566 24.9635 30.3373 24.2892 30.3384 23.5138C30.3458 19.8305 30.3458 16.1473 30.3384 12.4641C30.3349 12.2229 30.2995 11.9832 30.233 11.7513C30.1506 11.4446 30.0077 11.1574 29.8127 10.9067C29.6176 10.6561 29.3744 10.4469 29.0973 10.2916C28.2255 9.78172 27.3484 9.28128 26.4739 8.77662C24.1765 7.4516 21.8792 6.1264 19.5821 4.80103C18.8283 4.36486 18.0465 4.29269 17.2469 4.63826C16.9308 4.77364 16.6448 4.9696 16.3477 5.14186C14.7108 6.09006 13.0745 7.03984 11.4386 7.9912C10.1333 8.74835 8.82739 9.50463 7.52098 10.26C6.66022 10.7573 6.20403 11.499 6.20403 12.4951C6.19876 15.462 6.19876 18.4295 6.20403 21.3977C6.20403 22.2405 6.20403 23.085 6.20403 23.931V24.01C6.20087 24.3092 6.19349 24.6089 6.19876 24.9087C6.20431 24.9356 6.21548 24.9611 6.23155 24.9834C6.24761 25.0057 6.26821 25.0244 6.292 25.0383C6.69709 25.2774 7.10587 25.5124 7.51307 25.7468L8.84003 26.5143L17.6293 12.3803C17.2474 12.3635 16.8887 12.3403 16.5299 12.3324C15.7956 12.316 15.0639 12.3271 14.3575 12.5673C13.7196 12.7849 13.1838 13.1331 12.8299 13.7262C12.6629 14.0054 12.479 14.2746 12.3031 14.548C11.1993 16.2635 10.0955 17.9784 8.99174 19.6925C8.62984 20.2541 8.26373 20.8124 7.89973 21.3724Z" fill="#2D374B"/>
<path d="M13.8406 27.4956C13.8933 27.5209 13.9523 27.5415 14.0044 27.5715C15.2887 28.309 16.574 29.0465 17.8541 29.7945C18.1539 29.9689 18.4262 29.9689 18.7238 29.7945C19.7811 29.1724 20.8436 28.5597 21.904 27.9429C21.9614 27.9097 22.0157 27.8718 22.0715 27.8375C22.7284 27.4598 23.3884 27.0837 24.0416 26.7028C24.5395 26.4142 25.0336 26.1197 25.5293 25.8279L26.4975 25.2674C27.0875 24.9276 27.6759 24.5857 28.2685 24.2496C28.3875 24.1881 28.4871 24.0946 28.556 23.9797C28.6249 23.8649 28.6605 23.733 28.6589 23.5991C28.6673 23.0012 28.6589 22.4033 28.6589 21.8049C28.6589 21.7385 28.6641 21.6716 28.6641 21.6052C28.6641 18.5889 28.6641 15.5729 28.6641 12.5573C28.6641 12.1543 28.5103 11.8725 28.1521 11.6644C25.0107 9.85895 21.8713 8.04859 18.7338 6.23331C18.4109 6.04684 18.0964 6.04473 17.7746 6.23331C14.636 8.05562 11.4968 9.87634 8.35684 11.6955C8.01285 11.8941 7.85482 12.1659 7.8564 12.5631C7.86412 15.4014 7.86781 18.2396 7.86746 21.0779C7.86746 21.1722 7.87167 21.2665 7.87378 21.3608L7.89169 21.4035C7.56351 21.9155 7.23743 22.4291 6.90662 22.9395C6.68958 23.2735 6.4657 23.6028 6.24498 23.9341L6.20337 23.9283C6.20337 23.0855 6.20337 22.241 6.20337 21.395C6.20337 18.4282 6.20337 15.4607 6.20337 12.4925C6.20337 11.4964 6.65956 10.7541 7.52031 10.2574C8.82672 9.50197 10.1326 8.74569 11.438 7.98854C13.0741 7.04034 14.7105 6.09056 16.347 5.1392C16.6441 4.96694 16.9323 4.77045 17.2462 4.6356C18.0459 4.29003 18.8265 4.3622 19.5814 4.79837C21.8768 6.12831 24.1739 7.45491 26.4727 8.77818C27.3472 9.28283 28.2243 9.78327 29.0961 10.2932C29.3732 10.4485 29.6164 10.6576 29.8114 10.9083C30.0065 11.159 30.1494 11.4461 30.2318 11.7529C30.2983 11.9848 30.3337 12.2244 30.3372 12.4656C30.3435 16.1489 30.3435 19.8321 30.3372 23.5153C30.3372 24.2907 30.0553 24.965 29.4364 25.4496C29.1287 25.6904 28.7674 25.8637 28.4271 26.0618C26.5974 27.1276 24.7653 28.1922 22.9307 29.2556C21.7191 29.9573 20.5159 30.6658 19.2996 31.3554C18.9135 31.574 18.4847 31.6235 18.0353 31.5819C17.4611 31.5292 17.0092 31.2163 16.5361 30.946C15.3746 30.2834 14.2183 29.6117 13.0594 28.9443C13.0357 28.9306 13.0141 28.9127 12.9914 28.8969C13.2211 28.505 13.4492 28.112 13.6805 27.7216C13.7273 27.641 13.7869 27.5705 13.8406 27.4956Z" fill="#95BDDB"/>
<path d="M13.8406 27.4957C13.7879 27.5705 13.7274 27.641 13.6826 27.7201C13.4513 28.1104 13.2232 28.5034 12.9936 28.8953C12.422 28.5698 11.8489 28.2458 11.2778 27.9187C10.8143 27.6553 10.3528 27.3856 9.88135 27.1132C10.0536 26.8209 10.218 26.5401 10.3855 26.2609C10.9881 25.2604 11.5914 24.2604 12.1955 23.2609C12.7439 22.3559 13.2964 21.4535 13.8448 20.5485C14.7337 19.0813 15.6209 17.6135 16.5066 16.1452C17.242 14.9294 17.9784 13.714 18.7159 12.4989C18.7497 12.4435 18.8276 12.3788 18.885 12.3782C20.1493 12.3714 21.4178 12.373 22.7137 12.373C22.6836 12.4256 22.661 12.472 22.6346 12.5157C21.914 13.7364 21.1932 14.9573 20.4722 16.1784C19.7274 17.4427 18.9883 18.7159 18.2434 19.9833C16.8057 22.43 15.3676 24.8749 13.9291 27.3181C13.8954 27.375 13.8696 27.4361 13.8406 27.4957Z" fill="#FEFEFE"/>
<path d="M6.24458 23.9357C6.4653 23.6044 6.68918 23.2752 6.90622 22.9412C7.23703 22.4307 7.56311 21.9171 7.89129 21.4051L7.89919 21.3724C8.2632 20.8125 8.62931 20.2541 8.9912 19.6925C10.0964 17.9784 11.2002 16.2641 12.3025 14.5496C12.4785 14.2762 12.6623 14.007 12.8293 13.7278C13.1844 13.1352 13.7201 12.787 14.357 12.5689C15.0634 12.3287 15.7951 12.3176 16.5294 12.334C16.8881 12.3419 17.2469 12.365 17.6288 12.3819L8.83949 26.5133L7.51254 25.7458C7.10534 25.5103 6.69656 25.2764 6.29147 25.0372C6.26768 25.0234 6.24708 25.0047 6.23101 24.9824C6.21494 24.9601 6.20377 24.9346 6.19823 24.9076C6.19296 24.6079 6.19823 24.3082 6.20349 24.009L6.24458 23.9357Z" fill="#FEFEFE"/>
<path d="M28.6594 21.8028C28.6594 22.4012 28.6678 22.9991 28.6594 23.597C28.6611 23.731 28.6255 23.8628 28.5565 23.9777C28.4876 24.0926 28.3881 24.186 28.2691 24.2476C27.6764 24.5837 27.088 24.9256 26.498 25.2653C25.0996 22.9967 23.7013 20.7284 22.3033 18.4604C22.0004 17.9689 21.6948 17.4796 21.3977 16.9854C21.3802 16.955 21.3696 16.921 21.3666 16.886C21.3636 16.8509 21.3683 16.8157 21.3803 16.7826C22.0077 15.7027 22.6446 14.6265 23.2768 13.5503C23.2906 13.5319 23.3056 13.5143 23.3215 13.4977C23.361 13.5566 23.3979 13.6093 23.4327 13.6636C25.1395 16.3277 26.8466 18.9919 28.5541 21.6564C28.5857 21.707 28.6236 21.7538 28.6594 21.8028Z" fill="#289FEF"/>
<path d="M25.529 25.8258C25.0333 26.1176 24.5392 26.4121 24.0414 26.7008C23.386 27.0816 22.7281 27.4577 22.0712 27.8354C21.4092 26.79 20.7469 25.7443 20.0842 24.6985C19.5318 23.8262 18.9774 22.9552 18.4212 22.0857C18.3627 21.9951 18.3527 21.9277 18.4101 21.8313C19.1255 20.6228 19.8382 19.4128 20.5483 18.2012C20.5673 18.168 20.5904 18.1375 20.621 18.0922C20.6512 18.1256 20.6793 18.1608 20.7053 18.1975C22.3032 20.7208 23.9011 23.2444 25.4989 25.7684C25.509 25.7863 25.5184 25.8063 25.529 25.8258Z" fill="#289FEF"/>
<path d="M6.2445 23.9357L6.20288 24.0089V23.9299L6.2445 23.9357Z" fill="#718EA9"/>
<path d="M7.89959 21.3724L7.89169 21.4051L7.87378 21.3624C7.87858 21.3616 7.88351 21.3622 7.88804 21.3639C7.89258 21.3657 7.89657 21.3686 7.89959 21.3724Z" fill="#4D627A"/>
</g>
<defs>
<clipPath id="clip0_2263_1824">
<rect width="36.0026" height="36" fill="white" transform="translate(0.291992 0.00100708)"/>
</clipPath>
</defs>
</svg>
