<svg width="924" height="415" viewBox="0 0 924 415" fill="none" xmlns="http://www.w3.org/2000/svg">
<g clip-path="url(#clip0_3571_8937)">
<path d="M7.2107 174.89H8.0367V173.112C9.8567 173 11.1587 171.768 11.1587 170.172C11.1587 168.366 10.0947 167.708 8.0367 167.344V163.844C9.0727 163.984 9.6467 164.544 9.8567 165.622H10.9487C10.7667 163.998 9.7167 163.046 8.0367 162.892V161.618H7.2107V162.878C5.4607 162.99 4.2567 164.124 4.2567 165.58C4.2567 167.26 5.3627 167.918 7.2107 168.268V172.16C5.5027 172.006 5.1667 171.04 5.0267 169.948H3.8507C4.0187 171.558 4.8167 172.944 7.2107 173.112V174.89ZM9.9967 170.256C9.9967 171.292 9.1567 172.048 8.0367 172.16V168.408C9.5627 168.73 9.9967 169.22 9.9967 170.256ZM5.3627 165.468C5.3627 164.6 6.0347 163.928 7.2107 163.83V167.204C5.6567 166.882 5.3627 166.35 5.3627 165.468ZM17.4193 173H18.6093V170.9H19.9953V169.906H18.6093V162.99H16.9853L12.4073 170.508V170.9H17.4193V173ZM13.9473 169.906L17.4193 163.914V169.906H13.9473ZM24.436 173.126C26.34 173.126 27.866 171.838 27.866 169.724C27.866 167.68 26.55 166.406 24.758 166.406C23.806 166.406 23.12 166.714 22.714 167.092V164.04H27.334V162.99H21.706V168.352H22.154C22.686 167.75 23.358 167.386 24.52 167.386C25.794 167.386 26.62 168.31 26.62 169.724C26.62 171.236 25.78 172.146 24.422 172.146C22.896 172.146 22.462 171.39 22.266 170.298H21.104C21.244 171.936 22.28 173.126 24.436 173.126ZM29.4182 174.722L31.1402 171.796L30.0062 171.264L28.6622 174.33L29.4182 174.722ZM36.2281 172.118C34.5621 172.118 33.4981 170.802 33.4981 168.268V167.708C33.4981 165.244 34.5061 163.844 36.2001 163.844C37.8941 163.844 38.8741 165.356 38.8741 167.68V168.24C38.8741 170.774 37.9781 172.118 36.2281 172.118ZM36.2281 173.126C38.6921 173.126 40.1061 171.166 40.1061 168.254V167.694C40.1061 164.838 38.6641 162.864 36.2001 162.864C33.7501 162.864 32.2521 164.768 32.2521 167.722V168.282C32.2521 171.194 33.8341 173.126 36.2281 173.126ZM45.7574 172.118C44.0914 172.118 43.0274 170.802 43.0274 168.268V167.708C43.0274 165.244 44.0354 163.844 45.7294 163.844C47.4234 163.844 48.4034 165.356 48.4034 167.68V168.24C48.4034 170.774 47.5074 172.118 45.7574 172.118ZM45.7574 173.126C48.2214 173.126 49.6354 171.166 49.6354 168.254V167.694C49.6354 164.838 48.1934 162.864 45.7294 162.864C43.2794 162.864 41.7814 164.768 41.7814 167.722V168.282C41.7814 171.194 43.3634 173.126 45.7574 173.126ZM55.2867 172.118C53.6207 172.118 52.5567 170.802 52.5567 168.268V167.708C52.5567 165.244 53.5647 163.844 55.2587 163.844C56.9527 163.844 57.9327 165.356 57.9327 167.68V168.24C57.9327 170.774 57.0367 172.118 55.2867 172.118ZM55.2867 173.126C57.7507 173.126 59.1647 171.166 59.1647 168.254V167.694C59.1647 164.838 57.7227 162.864 55.2587 162.864C52.8087 162.864 51.3107 164.768 51.3107 167.722V168.282C51.3107 171.194 52.8927 173.126 55.2867 173.126Z" fill="#C1C0BE"/>
<path d="M5.10328 245.89H5.92928V244.112C7.74928 244 9.05128 242.768 9.05128 241.172C9.05128 239.366 7.98728 238.708 5.92928 238.344V234.844C6.96528 234.984 7.53928 235.544 7.74928 236.622H8.84128C8.65928 234.998 7.60928 234.046 5.92928 233.892V232.618H5.10328V233.878C3.35328 233.99 2.14928 235.124 2.14928 236.58C2.14928 238.26 3.25528 238.918 5.10328 239.268V243.16C3.39528 243.006 3.05928 242.04 2.91928 240.948H1.74328C1.91128 242.558 2.70928 243.944 5.10328 244.112V245.89ZM7.88928 241.256C7.88928 242.292 7.04928 243.048 5.92928 243.16V239.408C7.45528 239.73 7.88928 240.22 7.88928 241.256ZM3.25528 236.468C3.25528 235.6 3.92728 234.928 5.10328 234.83V238.204C3.54928 237.882 3.25528 237.35 3.25528 236.468ZM15.3119 244H16.5019V241.9H17.8879V240.906H16.5019V233.99H14.8779L10.2999 241.508V241.9H15.3119V244ZM11.8399 240.906L15.3119 234.914V240.906H11.8399ZM23.1422 243.118C21.4762 243.118 20.4122 241.802 20.4122 239.268V238.708C20.4122 236.244 21.4202 234.844 23.1142 234.844C24.8082 234.844 25.7882 236.356 25.7882 238.68V239.24C25.7882 241.774 24.8922 243.118 23.1422 243.118ZM23.1422 244.126C25.6062 244.126 27.0202 242.166 27.0202 239.254V238.694C27.0202 235.838 25.5782 233.864 23.1142 233.864C20.6642 233.864 19.1662 235.768 19.1662 238.722V239.282C19.1662 242.194 20.7482 244.126 23.1422 244.126ZM28.4182 245.722L30.1402 242.796L29.0062 242.264L27.6622 245.33L28.4182 245.722ZM35.2281 243.118C33.5621 243.118 32.4981 241.802 32.4981 239.268V238.708C32.4981 236.244 33.5061 234.844 35.2001 234.844C36.8941 234.844 37.8741 236.356 37.8741 238.68V239.24C37.8741 241.774 36.9781 243.118 35.2281 243.118ZM35.2281 244.126C37.6921 244.126 39.1061 242.166 39.1061 239.254V238.694C39.1061 235.838 37.6641 233.864 35.2001 233.864C32.7501 233.864 31.2521 235.768 31.2521 238.722V239.282C31.2521 242.194 32.8341 244.126 35.2281 244.126ZM44.7574 243.118C43.0914 243.118 42.0274 241.802 42.0274 239.268V238.708C42.0274 236.244 43.0354 234.844 44.7294 234.844C46.4234 234.844 47.4034 236.356 47.4034 238.68V239.24C47.4034 241.774 46.5074 243.118 44.7574 243.118ZM44.7574 244.126C47.2214 244.126 48.6354 242.166 48.6354 239.254V238.694C48.6354 235.838 47.1934 233.864 44.7294 233.864C42.2794 233.864 40.7814 235.768 40.7814 238.722V239.282C40.7814 242.194 42.3634 244.126 44.7574 244.126ZM54.2867 243.118C52.6207 243.118 51.5567 241.802 51.5567 239.268V238.708C51.5567 236.244 52.5647 234.844 54.2587 234.844C55.9527 234.844 56.9327 236.356 56.9327 238.68V239.24C56.9327 241.774 56.0367 243.118 54.2867 243.118ZM54.2867 244.126C56.7507 244.126 58.1647 242.166 58.1647 239.254V238.694C58.1647 235.838 56.7227 233.864 54.2587 233.864C51.8087 233.864 50.3107 235.768 50.3107 238.722V239.282C50.3107 242.194 51.8927 244.126 54.2867 244.126Z" fill="#C1C0BE"/>
<path d="M7.26539 316.89H8.09139V315.112C9.91139 315 11.2134 313.768 11.2134 312.172C11.2134 310.366 10.1494 309.708 8.09139 309.344V305.844C9.12739 305.984 9.70139 306.544 9.91139 307.622H11.0034C10.8214 305.998 9.77139 305.046 8.09139 304.892V303.618H7.26539V304.878C5.51539 304.99 4.31139 306.124 4.31139 307.58C4.31139 309.26 5.41739 309.918 7.26539 310.268V314.16C5.55739 314.006 5.22139 313.04 5.08139 311.948H3.90539C4.07339 313.558 4.87139 314.944 7.26539 315.112V316.89ZM10.0514 312.256C10.0514 313.292 9.21139 314.048 8.09139 314.16V310.408C9.61739 310.73 10.0514 311.22 10.0514 312.256ZM5.41739 307.468C5.41739 306.6 6.08939 305.928 7.26539 305.83V309.204C5.71139 308.882 5.41739 308.35 5.41739 307.468ZM16.1127 315.126C18.1847 315.126 19.6687 314.034 19.6687 312.214C19.6687 310.828 18.9127 310.002 17.7367 309.694C18.6467 309.316 19.3187 308.644 19.3187 307.51C19.3187 306.124 18.2127 304.864 16.3087 304.864C14.4047 304.864 13.1027 306.166 13.0327 307.748H14.0967C14.2227 306.614 15.0627 305.858 16.3087 305.858C17.5267 305.858 18.1287 306.586 18.1287 307.538C18.1287 308.63 17.5547 309.246 16.2527 309.246H15.5527V310.268H16.3087C17.7227 310.268 18.4227 310.926 18.4227 312.214C18.4227 313.39 17.7087 314.146 16.1407 314.146C14.5587 314.146 13.8447 313.236 13.7327 312.046H12.6127C12.6827 313.796 13.9847 315.126 16.1127 315.126ZM24.436 315.126C26.34 315.126 27.866 313.838 27.866 311.724C27.866 309.68 26.55 308.406 24.758 308.406C23.806 308.406 23.12 308.714 22.714 309.092V306.04H27.334V304.99H21.706V310.352H22.154C22.686 309.75 23.358 309.386 24.52 309.386C25.794 309.386 26.62 310.31 26.62 311.724C26.62 313.236 25.78 314.146 24.422 314.146C22.896 314.146 22.462 313.39 22.266 312.298H21.104C21.244 313.936 22.28 315.126 24.436 315.126ZM29.4182 316.722L31.1402 313.796L30.0062 313.264L28.6622 316.33L29.4182 316.722ZM36.2281 314.118C34.5621 314.118 33.4981 312.802 33.4981 310.268V309.708C33.4981 307.244 34.5061 305.844 36.2001 305.844C37.8941 305.844 38.8741 307.356 38.8741 309.68V310.24C38.8741 312.774 37.9781 314.118 36.2281 314.118ZM36.2281 315.126C38.6921 315.126 40.1061 313.166 40.1061 310.254V309.694C40.1061 306.838 38.6641 304.864 36.2001 304.864C33.7501 304.864 32.2521 306.768 32.2521 309.722V310.282C32.2521 313.194 33.8341 315.126 36.2281 315.126ZM45.7574 314.118C44.0914 314.118 43.0274 312.802 43.0274 310.268V309.708C43.0274 307.244 44.0354 305.844 45.7294 305.844C47.4234 305.844 48.4034 307.356 48.4034 309.68V310.24C48.4034 312.774 47.5074 314.118 45.7574 314.118ZM45.7574 315.126C48.2214 315.126 49.6354 313.166 49.6354 310.254V309.694C49.6354 306.838 48.1934 304.864 45.7294 304.864C43.2794 304.864 41.7814 306.768 41.7814 309.722V310.282C41.7814 313.194 43.3634 315.126 45.7574 315.126ZM55.2867 314.118C53.6207 314.118 52.5567 312.802 52.5567 310.268V309.708C52.5567 307.244 53.5647 305.844 55.2587 305.844C56.9527 305.844 57.9327 307.356 57.9327 309.68V310.24C57.9327 312.774 57.0367 314.118 55.2867 314.118ZM55.2867 315.126C57.7507 315.126 59.1647 313.166 59.1647 310.254V309.694C59.1647 306.838 57.7227 304.864 55.2587 304.864C52.8087 304.864 51.3107 306.768 51.3107 309.722V310.282C51.3107 313.194 52.8927 315.126 55.2867 315.126Z" fill="#C1C0BE"/>
<path d="M6.08961 387.89H6.91561V386.112C8.73561 386 10.0376 384.768 10.0376 383.172C10.0376 381.366 8.97361 380.708 6.91561 380.344V376.844C7.95161 376.984 8.52561 377.544 8.73561 378.622H9.82761C9.64561 376.998 8.59561 376.046 6.91561 375.892V374.618H6.08961V375.878C4.33961 375.99 3.13561 377.124 3.13561 378.58C3.13561 380.26 4.24161 380.918 6.08961 381.268V385.16C4.38161 385.006 4.04561 384.04 3.90561 382.948H2.72961C2.89761 384.558 3.69561 385.944 6.08961 386.112V387.89ZM8.87561 383.256C8.87561 384.292 8.03561 385.048 6.91561 385.16V381.408C8.44161 381.73 8.87561 382.22 8.87561 383.256ZM4.24161 378.468C4.24161 377.6 4.91361 376.928 6.08961 376.83V380.204C4.53561 379.882 4.24161 379.35 4.24161 378.468ZM14.937 386.126C17.009 386.126 18.493 385.034 18.493 383.214C18.493 381.828 17.737 381.002 16.561 380.694C17.471 380.316 18.143 379.644 18.143 378.51C18.143 377.124 17.037 375.864 15.133 375.864C13.229 375.864 11.927 377.166 11.857 378.748H12.921C13.047 377.614 13.887 376.858 15.133 376.858C16.351 376.858 16.953 377.586 16.953 378.538C16.953 379.63 16.379 380.246 15.077 380.246H14.377V381.268H15.133C16.547 381.268 17.247 381.926 17.247 383.214C17.247 384.39 16.533 385.146 14.965 385.146C13.383 385.146 12.669 384.236 12.557 383.046H11.437C11.507 384.796 12.809 386.126 14.937 386.126ZM24.1422 385.118C22.4762 385.118 21.4122 383.802 21.4122 381.268V380.708C21.4122 378.244 22.4202 376.844 24.1142 376.844C25.8082 376.844 26.7882 378.356 26.7882 380.68V381.24C26.7882 383.774 25.8922 385.118 24.1422 385.118ZM24.1422 386.126C26.6062 386.126 28.0202 384.166 28.0202 381.254V380.694C28.0202 377.838 26.5782 375.864 24.1142 375.864C21.6642 375.864 20.1662 377.768 20.1662 380.722V381.282C20.1662 384.194 21.7482 386.126 24.1422 386.126ZM29.4182 387.722L31.1402 384.796L30.0062 384.264L28.6622 387.33L29.4182 387.722ZM36.2281 385.118C34.5621 385.118 33.4981 383.802 33.4981 381.268V380.708C33.4981 378.244 34.5061 376.844 36.2001 376.844C37.8941 376.844 38.8741 378.356 38.8741 380.68V381.24C38.8741 383.774 37.9781 385.118 36.2281 385.118ZM36.2281 386.126C38.6921 386.126 40.1061 384.166 40.1061 381.254V380.694C40.1061 377.838 38.6641 375.864 36.2001 375.864C33.7501 375.864 32.2521 377.768 32.2521 380.722V381.282C32.2521 384.194 33.8341 386.126 36.2281 386.126ZM45.7574 385.118C44.0914 385.118 43.0274 383.802 43.0274 381.268V380.708C43.0274 378.244 44.0354 376.844 45.7294 376.844C47.4234 376.844 48.4034 378.356 48.4034 380.68V381.24C48.4034 383.774 47.5074 385.118 45.7574 385.118ZM45.7574 386.126C48.2214 386.126 49.6354 384.166 49.6354 381.254V380.694C49.6354 377.838 48.1934 375.864 45.7294 375.864C43.2794 375.864 41.7814 377.768 41.7814 380.722V381.282C41.7814 384.194 43.3634 386.126 45.7574 386.126ZM55.2867 385.118C53.6207 385.118 52.5567 383.802 52.5567 381.268V380.708C52.5567 378.244 53.5647 376.844 55.2587 376.844C56.9527 376.844 57.9327 378.356 57.9327 380.68V381.24C57.9327 383.774 57.0367 385.118 55.2867 385.118ZM55.2867 386.126C57.7507 386.126 59.1647 384.166 59.1647 381.254V380.694C59.1647 377.838 57.7227 375.864 55.2587 375.864C52.8087 375.864 51.3107 377.768 51.3107 380.722V381.282C51.3107 384.194 52.8927 386.126 55.2867 386.126Z" fill="#C1C0BE"/>
<rect y="80" width="60" height="26" fill="#A2823C"/>
<path d="M10.3167 98.9447V97.9847C9.66066 97.9127 9.11666 97.6647 8.68466 97.2407C8.25266 96.8087 8.02866 96.2247 8.01266 95.4887H9.04466C9.14866 96.3367 9.57266 96.8327 10.3167 96.9767V93.9887L9.90866 93.8327C8.67666 93.3367 8.06066 92.5287 8.06066 91.4087C8.06066 90.7687 8.27266 90.2607 8.69666 89.8847C9.12066 89.5007 9.66066 89.2847 10.3167 89.2367V88.3127H10.9647V89.2607C11.5407 89.3487 12.0247 89.5807 12.4167 89.9567C12.8167 90.3247 13.0167 90.8047 13.0167 91.3967H11.9847C11.8807 90.7807 11.5407 90.4047 10.9647 90.2687V93.0767L11.2647 93.1967C11.9127 93.4607 12.3967 93.7927 12.7167 94.1927C13.0447 94.5927 13.2087 95.0927 13.2087 95.6927C13.2087 96.3967 13.0007 96.9447 12.5847 97.3367C12.1767 97.7287 11.6367 97.9487 10.9647 97.9967V98.9447H10.3167ZM12.1767 95.7647C12.1767 95.3967 12.0767 95.0967 11.8767 94.8647C11.6767 94.6327 11.3727 94.4287 10.9647 94.2527V97.0007C11.3087 96.9607 11.5967 96.8287 11.8287 96.6047C12.0607 96.3727 12.1767 96.0927 12.1767 95.7647ZM9.09266 91.4087C9.09266 91.7367 9.18466 92.0087 9.36866 92.2247C9.56066 92.4327 9.87666 92.6327 10.3167 92.8247V90.2327C9.94066 90.2727 9.64066 90.4007 9.41666 90.6167C9.20066 90.8327 9.09266 91.0967 9.09266 91.4087ZM17.0302 98.0087C16.2622 98.0087 15.5982 97.7687 15.0382 97.2887C14.4782 96.8087 14.1902 96.2407 14.1742 95.5847H15.2302C15.3262 96.0007 15.5382 96.3407 15.8662 96.6047C16.1942 96.8687 16.5822 97.0007 17.0302 97.0007C17.5502 97.0007 17.9862 96.8247 18.3382 96.4727C18.6902 96.1207 18.8662 95.6887 18.8662 95.1767C18.8662 94.6567 18.6982 94.2207 18.3622 93.8687C18.0262 93.5167 17.5982 93.3407 17.0782 93.3407C16.3662 93.3407 15.8302 93.6287 15.4702 94.2047L14.4862 93.9167L15.3622 89.3687H19.3462V90.3767H16.1902L15.7222 92.8127C16.1382 92.5167 16.6342 92.3687 17.2102 92.3687C18.0022 92.3687 18.6502 92.6487 19.1542 93.2087C19.6662 93.7607 19.9222 94.4607 19.9222 95.3087C19.9222 96.0607 19.6462 96.7007 19.0942 97.2287C18.5422 97.7487 17.8542 98.0087 17.0302 98.0087ZM24.1304 98.0087C23.2424 98.0087 22.5184 97.7127 21.9584 97.1207C21.3984 96.5207 21.1184 95.7487 21.1184 94.8047V92.4287C21.1184 91.4847 21.3984 90.7167 21.9584 90.1247C22.5264 89.5247 23.2504 89.2247 24.1304 89.2247C25.0104 89.2247 25.7344 89.5247 26.3024 90.1247C26.8704 90.7247 27.1544 91.4927 27.1544 92.4287V94.8047C27.1544 95.7487 26.8704 96.5207 26.3024 97.1207C25.7344 97.7127 25.0104 98.0087 24.1304 98.0087ZM24.1304 97.0007C24.7224 97.0007 25.2024 96.8047 25.5704 96.4127C25.9384 96.0207 26.1224 95.4847 26.1224 94.8047V92.4287C26.1224 91.7487 25.9384 91.2127 25.5704 90.8207C25.2024 90.4287 24.7224 90.2327 24.1304 90.2327C23.5464 90.2327 23.0704 90.4287 22.7024 90.8207C22.3344 91.2127 22.1504 91.7487 22.1504 92.4287V94.8047C22.1504 95.4847 22.3344 96.0207 22.7024 96.4127C23.0704 96.8047 23.5464 97.0007 24.1304 97.0007ZM29.9435 97.6247L28.7075 99.6047H28.0235L28.8275 97.8887C28.4995 97.7287 28.3355 97.4607 28.3355 97.0847C28.3355 96.8447 28.4235 96.6367 28.5995 96.4607C28.7755 96.2767 28.9835 96.1847 29.2235 96.1847C29.4635 96.1847 29.6715 96.2767 29.8475 96.4607C30.0235 96.6367 30.1115 96.8447 30.1115 97.0847C30.1115 97.2607 30.0555 97.4407 29.9435 97.6247ZM34.3023 98.0087C33.4143 98.0087 32.6903 97.7127 32.1303 97.1207C31.5703 96.5207 31.2903 95.7487 31.2903 94.8047V92.4287C31.2903 91.4847 31.5703 90.7167 32.1303 90.1247C32.6983 89.5247 33.4223 89.2247 34.3023 89.2247C35.1823 89.2247 35.9063 89.5247 36.4743 90.1247C37.0423 90.7247 37.3263 91.4927 37.3263 92.4287V94.8047C37.3263 95.7487 37.0423 96.5207 36.4743 97.1207C35.9063 97.7127 35.1823 98.0087 34.3023 98.0087ZM34.3023 97.0007C34.8943 97.0007 35.3743 96.8047 35.7423 96.4127C36.1103 96.0207 36.2943 95.4847 36.2943 94.8047V92.4287C36.2943 91.7487 36.1103 91.2127 35.7423 90.8207C35.3743 90.4287 34.8943 90.2327 34.3023 90.2327C33.7183 90.2327 33.2423 90.4287 32.8743 90.8207C32.5063 91.2127 32.3223 91.7487 32.3223 92.4287V94.8047C32.3223 95.4847 32.5063 96.0207 32.8743 96.4127C33.2423 96.8047 33.7183 97.0007 34.3023 97.0007ZM41.7789 98.0087C40.8909 98.0087 40.1669 97.7127 39.6069 97.1207C39.0469 96.5207 38.7669 95.7487 38.7669 94.8047V92.4287C38.7669 91.4847 39.0469 90.7167 39.6069 90.1247C40.1749 89.5247 40.8989 89.2247 41.7789 89.2247C42.6589 89.2247 43.3829 89.5247 43.9509 90.1247C44.5189 90.7247 44.8029 91.4927 44.8029 92.4287V94.8047C44.8029 95.7487 44.5189 96.5207 43.9509 97.1207C43.3829 97.7127 42.6589 98.0087 41.7789 98.0087ZM41.7789 97.0007C42.3709 97.0007 42.8509 96.8047 43.2189 96.4127C43.5869 96.0207 43.7709 95.4847 43.7709 94.8047V92.4287C43.7709 91.7487 43.5869 91.2127 43.2189 90.8207C42.8509 90.4287 42.3709 90.2327 41.7789 90.2327C41.1949 90.2327 40.7189 90.4287 40.3509 90.8207C39.9829 91.2127 39.7989 91.7487 39.7989 92.4287V94.8047C39.7989 95.4847 39.9829 96.0207 40.3509 96.4127C40.7189 96.8047 41.1949 97.0007 41.7789 97.0007ZM49.2554 98.0087C48.3674 98.0087 47.6434 97.7127 47.0834 97.1207C46.5234 96.5207 46.2434 95.7487 46.2434 94.8047V92.4287C46.2434 91.4847 46.5234 90.7167 47.0834 90.1247C47.6514 89.5247 48.3754 89.2247 49.2554 89.2247C50.1354 89.2247 50.8594 89.5247 51.4274 90.1247C51.9954 90.7247 52.2794 91.4927 52.2794 92.4287V94.8047C52.2794 95.7487 51.9954 96.5207 51.4274 97.1207C50.8594 97.7127 50.1354 98.0087 49.2554 98.0087ZM49.2554 97.0007C49.8474 97.0007 50.3274 96.8047 50.6954 96.4127C51.0634 96.0207 51.2474 95.4847 51.2474 94.8047V92.4287C51.2474 91.7487 51.0634 91.2127 50.6954 90.8207C50.3274 90.4287 49.8474 90.2327 49.2554 90.2327C48.6714 90.2327 48.1954 90.4287 47.8274 90.8207C47.4594 91.2127 47.2754 91.7487 47.2754 92.4287V94.8047C47.2754 95.4847 47.4594 96.0207 47.8274 96.4127C48.1954 96.8047 48.6714 97.0007 49.2554 97.0007Z" fill="white"/>
<path d="M79.558 411H80.748V408.9H82.134V407.906H80.748V400.99H79.124L74.546 408.508V408.9H79.558V411ZM76.086 407.906L79.558 401.914V407.906H76.086ZM84.6846 411.07C85.1746 411.07 85.5806 410.678 85.5806 410.174C85.5806 409.67 85.1746 409.278 84.6846 409.278C84.1946 409.278 83.7886 409.67 83.7886 410.174C83.7886 410.678 84.1946 411.07 84.6846 411.07ZM84.6846 406.912C85.1746 406.912 85.5806 406.52 85.5806 406.016C85.5806 405.512 85.1746 405.12 84.6846 405.12C84.1946 405.12 83.7886 405.512 83.7886 406.016C83.7886 406.52 84.1946 406.912 84.6846 406.912ZM90.6518 411.126C92.7238 411.126 94.2078 410.034 94.2078 408.214C94.2078 406.828 93.4518 406.002 92.2758 405.694C93.1858 405.316 93.8578 404.644 93.8578 403.51C93.8578 402.124 92.7518 400.864 90.8478 400.864C88.9438 400.864 87.6418 402.166 87.5718 403.748H88.6358C88.7618 402.614 89.6018 401.858 90.8478 401.858C92.0658 401.858 92.6678 402.586 92.6678 403.538C92.6678 404.63 92.0938 405.246 90.7918 405.246H90.0918V406.268H90.8478C92.2618 406.268 92.9618 406.926 92.9618 408.214C92.9618 409.39 92.2478 410.146 90.6798 410.146C89.0978 410.146 88.3838 409.236 88.2718 408.046H87.1518C87.2218 409.796 88.5238 411.126 90.6518 411.126ZM99.857 410.118C98.191 410.118 97.127 408.802 97.127 406.268V405.708C97.127 403.244 98.135 401.844 99.829 401.844C101.523 401.844 102.503 403.356 102.503 405.68V406.24C102.503 408.774 101.607 410.118 99.857 410.118ZM99.857 411.126C102.321 411.126 103.735 409.166 103.735 406.254V405.694C103.735 402.838 102.293 400.864 99.829 400.864C97.379 400.864 95.881 402.768 95.881 405.722V406.282C95.881 409.194 97.463 411.126 99.857 411.126ZM111.285 411.126C112.363 411.126 113.021 410.762 113.567 410.076V411H114.729V406.17C114.729 404.126 113.455 403.552 112.055 403.552C110.641 403.552 109.311 404.168 109.157 405.834H110.319C110.431 404.938 110.991 404.518 111.999 404.518C113.119 404.518 113.567 405.008 113.567 406.17V406.702H112.517C110.641 406.702 108.849 407.276 108.849 408.97C108.849 410.468 109.927 411.126 111.285 411.126ZM111.397 410.202C110.375 410.202 110.011 409.726 110.011 408.97C110.011 407.892 111.089 407.528 112.559 407.528H113.567V408.438C113.567 409.572 112.629 410.202 111.397 410.202ZM117.012 411H118.174V406.52C118.174 405.204 119.154 404.56 120.106 404.56C121.114 404.56 121.66 405.092 121.66 406.38V411H122.822V406.52C122.822 405.204 123.802 404.56 124.754 404.56C125.762 404.56 126.308 405.092 126.308 406.38V411H127.47V406.464C127.47 404.336 126.322 403.552 125.006 403.552C124.096 403.552 123.004 403.972 122.5 404.924C122.122 403.944 121.296 403.552 120.358 403.552C119.308 403.552 118.51 404.112 118.174 404.798V403.678H117.012V411Z" fill="#C1C0BE"/>
<path d="M202.872 411H204.118L207.87 401.158V400.99H201.276V401.97H206.358L202.872 411ZM209.598 411.07C210.088 411.07 210.494 410.678 210.494 410.174C210.494 409.67 210.088 409.278 209.598 409.278C209.108 409.278 208.702 409.67 208.702 410.174C208.702 410.678 209.108 411.07 209.598 411.07ZM209.598 406.912C210.088 406.912 210.494 406.52 210.494 406.016C210.494 405.512 210.088 405.12 209.598 405.12C209.108 405.12 208.702 405.512 208.702 406.016C208.702 406.52 209.108 406.912 209.598 406.912ZM215.565 411.126C217.637 411.126 219.121 410.034 219.121 408.214C219.121 406.828 218.365 406.002 217.189 405.694C218.099 405.316 218.771 404.644 218.771 403.51C218.771 402.124 217.665 400.864 215.761 400.864C213.857 400.864 212.555 402.166 212.485 403.748H213.549C213.675 402.614 214.515 401.858 215.761 401.858C216.979 401.858 217.581 402.586 217.581 403.538C217.581 404.63 217.007 405.246 215.705 405.246H215.005V406.268H215.761C217.175 406.268 217.875 406.926 217.875 408.214C217.875 409.39 217.161 410.146 215.593 410.146C214.011 410.146 213.297 409.236 213.185 408.046H212.065C212.135 409.796 213.437 411.126 215.565 411.126ZM224.77 410.118C223.104 410.118 222.04 408.802 222.04 406.268V405.708C222.04 403.244 223.048 401.844 224.742 401.844C226.436 401.844 227.416 403.356 227.416 405.68V406.24C227.416 408.774 226.52 410.118 224.77 410.118ZM224.77 411.126C227.234 411.126 228.648 409.166 228.648 406.254V405.694C228.648 402.838 227.206 400.864 224.742 400.864C222.292 400.864 220.794 402.768 220.794 405.722V406.282C220.794 409.194 222.376 411.126 224.77 411.126ZM236.199 411.126C237.277 411.126 237.935 410.762 238.481 410.076V411H239.643V406.17C239.643 404.126 238.369 403.552 236.969 403.552C235.555 403.552 234.225 404.168 234.071 405.834H235.233C235.345 404.938 235.905 404.518 236.913 404.518C238.033 404.518 238.481 405.008 238.481 406.17V406.702H237.431C235.555 406.702 233.763 407.276 233.763 408.97C233.763 410.468 234.841 411.126 236.199 411.126ZM236.311 410.202C235.289 410.202 234.925 409.726 234.925 408.97C234.925 407.892 236.003 407.528 237.473 407.528H238.481V408.438C238.481 409.572 237.543 410.202 236.311 410.202ZM241.925 411H243.087V406.52C243.087 405.204 244.067 404.56 245.019 404.56C246.027 404.56 246.573 405.092 246.573 406.38V411H247.735V406.52C247.735 405.204 248.715 404.56 249.667 404.56C250.675 404.56 251.221 405.092 251.221 406.38V411H252.383V406.464C252.383 404.336 251.235 403.552 249.919 403.552C249.009 403.552 247.917 403.972 247.413 404.924C247.035 403.944 246.209 403.552 245.271 403.552C244.221 403.552 243.423 404.112 243.087 404.798V403.678H241.925V411Z" fill="#C1C0BE"/>
<path d="M328.008 411H329.226V400.99H328.092L325.768 402.67V403.804L328.008 402.194V411ZM335.714 410.118C334.048 410.118 332.984 408.802 332.984 406.268V405.708C332.984 403.244 333.992 401.844 335.686 401.844C337.38 401.844 338.36 403.356 338.36 405.68V406.24C338.36 408.774 337.464 410.118 335.714 410.118ZM335.714 411.126C338.178 411.126 339.592 409.166 339.592 406.254V405.694C339.592 402.838 338.15 400.864 335.686 400.864C333.236 400.864 331.738 402.768 331.738 405.722V406.282C331.738 409.194 333.32 411.126 335.714 411.126ZM342.471 411.07C342.961 411.07 343.367 410.678 343.367 410.174C343.367 409.67 342.961 409.278 342.471 409.278C341.981 409.278 341.575 409.67 341.575 410.174C341.575 410.678 341.981 411.07 342.471 411.07ZM342.471 406.912C342.961 406.912 343.367 406.52 343.367 406.016C343.367 405.512 342.961 405.12 342.471 405.12C341.981 405.12 341.575 405.512 341.575 406.016C341.575 406.52 341.981 406.912 342.471 406.912ZM348.439 411.126C350.511 411.126 351.995 410.034 351.995 408.214C351.995 406.828 351.239 406.002 350.063 405.694C350.973 405.316 351.645 404.644 351.645 403.51C351.645 402.124 350.539 400.864 348.635 400.864C346.731 400.864 345.429 402.166 345.359 403.748H346.423C346.549 402.614 347.389 401.858 348.635 401.858C349.853 401.858 350.455 402.586 350.455 403.538C350.455 404.63 349.881 405.246 348.579 405.246H347.879V406.268H348.635C350.049 406.268 350.749 406.926 350.749 408.214C350.749 409.39 350.035 410.146 348.467 410.146C346.885 410.146 346.171 409.236 346.059 408.046H344.939C345.009 409.796 346.311 411.126 348.439 411.126ZM357.644 410.118C355.978 410.118 354.914 408.802 354.914 406.268V405.708C354.914 403.244 355.922 401.844 357.616 401.844C359.31 401.844 360.29 403.356 360.29 405.68V406.24C360.29 408.774 359.394 410.118 357.644 410.118ZM357.644 411.126C360.108 411.126 361.522 409.166 361.522 406.254V405.694C361.522 402.838 360.08 400.864 357.616 400.864C355.166 400.864 353.668 402.768 353.668 405.722V406.282C353.668 409.194 355.25 411.126 357.644 411.126ZM369.072 411.126C370.15 411.126 370.808 410.762 371.354 410.076V411H372.516V406.17C372.516 404.126 371.242 403.552 369.842 403.552C368.428 403.552 367.098 404.168 366.944 405.834H368.106C368.218 404.938 368.778 404.518 369.786 404.518C370.906 404.518 371.354 405.008 371.354 406.17V406.702H370.304C368.428 406.702 366.636 407.276 366.636 408.97C366.636 410.468 367.714 411.126 369.072 411.126ZM369.184 410.202C368.162 410.202 367.798 409.726 367.798 408.97C367.798 407.892 368.876 407.528 370.346 407.528H371.354V408.438C371.354 409.572 370.416 410.202 369.184 410.202ZM374.799 411H375.961V406.52C375.961 405.204 376.941 404.56 377.893 404.56C378.901 404.56 379.447 405.092 379.447 406.38V411H380.609V406.52C380.609 405.204 381.589 404.56 382.541 404.56C383.549 404.56 384.095 405.092 384.095 406.38V411H385.257V406.464C385.257 404.336 384.109 403.552 382.793 403.552C381.883 403.552 380.791 403.972 380.287 404.924C379.909 403.944 379.083 403.552 378.145 403.552C377.095 403.552 376.297 404.112 375.961 404.798V403.678H374.799V411Z" fill="#C1C0BE"/>
<path d="M459.533 411H460.751V400.99H459.617L457.293 402.67V403.804L459.533 402.194V411ZM464.467 411.07C464.957 411.07 465.363 410.678 465.363 410.174C465.363 409.67 464.957 409.278 464.467 409.278C463.977 409.278 463.571 409.67 463.571 410.174C463.571 410.678 463.977 411.07 464.467 411.07ZM464.467 406.912C464.957 406.912 465.363 406.52 465.363 406.016C465.363 405.512 464.957 405.12 464.467 405.12C463.977 405.12 463.571 405.512 463.571 406.016C463.571 406.52 463.977 406.912 464.467 406.912ZM470.434 411.126C472.506 411.126 473.99 410.034 473.99 408.214C473.99 406.828 473.234 406.002 472.058 405.694C472.968 405.316 473.64 404.644 473.64 403.51C473.64 402.124 472.534 400.864 470.63 400.864C468.726 400.864 467.424 402.166 467.354 403.748H468.418C468.544 402.614 469.384 401.858 470.63 401.858C471.848 401.858 472.45 402.586 472.45 403.538C472.45 404.63 471.876 405.246 470.574 405.246H469.874V406.268H470.63C472.044 406.268 472.744 406.926 472.744 408.214C472.744 409.39 472.03 410.146 470.462 410.146C468.88 410.146 468.166 409.236 468.054 408.046H466.934C467.004 409.796 468.306 411.126 470.434 411.126ZM479.639 410.118C477.973 410.118 476.909 408.802 476.909 406.268V405.708C476.909 403.244 477.917 401.844 479.611 401.844C481.305 401.844 482.285 403.356 482.285 405.68V406.24C482.285 408.774 481.389 410.118 479.639 410.118ZM479.639 411.126C482.103 411.126 483.517 409.166 483.517 406.254V405.694C483.517 402.838 482.075 400.864 479.611 400.864C477.161 400.864 475.663 402.768 475.663 405.722V406.282C475.663 409.194 477.245 411.126 479.639 411.126ZM489.234 413.548H490.396V409.796C490.816 410.524 491.67 411.126 492.874 411.126C494.89 411.126 496.206 409.586 496.206 407.346V407.234C496.206 404.952 494.792 403.552 492.874 403.552C491.81 403.552 490.816 404.196 490.396 404.91V403.678H489.234V413.548ZM492.762 410.16C491.334 410.16 490.354 409.278 490.354 407.402V407.29C490.354 405.414 491.39 404.518 492.748 404.518C493.98 404.518 495.002 405.442 495.002 407.29V407.402C495.002 409.18 494.218 410.16 492.762 410.16ZM498.011 411H499.173V406.52C499.173 405.204 500.153 404.56 501.105 404.56C502.113 404.56 502.659 405.092 502.659 406.38V411H503.821V406.52C503.821 405.204 504.801 404.56 505.753 404.56C506.761 404.56 507.307 405.092 507.307 406.38V411H508.469V406.464C508.469 404.336 507.321 403.552 506.005 403.552C505.095 403.552 504.003 403.972 503.499 404.924C503.121 403.944 502.295 403.552 501.357 403.552C500.307 403.552 499.509 404.112 499.173 404.798V403.678H498.011V411Z" fill="#C1C0BE"/>
<path d="M584.519 411H585.709V408.9H587.095V407.906H585.709V400.99H584.085L579.507 408.508V408.9H584.519V411ZM581.047 407.906L584.519 401.914V407.906H581.047ZM589.646 411.07C590.136 411.07 590.542 410.678 590.542 410.174C590.542 409.67 590.136 409.278 589.646 409.278C589.156 409.278 588.75 409.67 588.75 410.174C588.75 410.678 589.156 411.07 589.646 411.07ZM589.646 406.912C590.136 406.912 590.542 406.52 590.542 406.016C590.542 405.512 590.136 405.12 589.646 405.12C589.156 405.12 588.75 405.512 588.75 406.016C588.75 406.52 589.156 406.912 589.646 406.912ZM595.613 411.126C597.685 411.126 599.169 410.034 599.169 408.214C599.169 406.828 598.413 406.002 597.237 405.694C598.147 405.316 598.819 404.644 598.819 403.51C598.819 402.124 597.713 400.864 595.809 400.864C593.905 400.864 592.603 402.166 592.533 403.748H593.597C593.723 402.614 594.563 401.858 595.809 401.858C597.027 401.858 597.629 402.586 597.629 403.538C597.629 404.63 597.055 405.246 595.753 405.246H595.053V406.268H595.809C597.223 406.268 597.923 406.926 597.923 408.214C597.923 409.39 597.209 410.146 595.641 410.146C594.059 410.146 593.345 409.236 593.233 408.046H592.113C592.183 409.796 593.485 411.126 595.613 411.126ZM604.818 410.118C603.152 410.118 602.088 408.802 602.088 406.268V405.708C602.088 403.244 603.096 401.844 604.79 401.844C606.484 401.844 607.464 403.356 607.464 405.68V406.24C607.464 408.774 606.568 410.118 604.818 410.118ZM604.818 411.126C607.282 411.126 608.696 409.166 608.696 406.254V405.694C608.696 402.838 607.254 400.864 604.79 400.864C602.34 400.864 600.842 402.768 600.842 405.722V406.282C600.842 409.194 602.424 411.126 604.818 411.126ZM614.413 413.548H615.575V409.796C615.995 410.524 616.849 411.126 618.053 411.126C620.069 411.126 621.385 409.586 621.385 407.346V407.234C621.385 404.952 619.971 403.552 618.053 403.552C616.989 403.552 615.995 404.196 615.575 404.91V403.678H614.413V413.548ZM617.941 410.16C616.513 410.16 615.533 409.278 615.533 407.402V407.29C615.533 405.414 616.569 404.518 617.927 404.518C619.159 404.518 620.181 405.442 620.181 407.29V407.402C620.181 409.18 619.397 410.16 617.941 410.16ZM623.19 411H624.352V406.52C624.352 405.204 625.332 404.56 626.284 404.56C627.292 404.56 627.838 405.092 627.838 406.38V411H629V406.52C629 405.204 629.98 404.56 630.932 404.56C631.94 404.56 632.486 405.092 632.486 406.38V411H633.648V406.464C633.648 404.336 632.5 403.552 631.184 403.552C630.274 403.552 629.182 403.972 628.678 404.924C628.3 403.944 627.474 403.552 626.536 403.552C625.486 403.552 624.688 404.112 624.352 404.798V403.678H623.19V411Z" fill="#C1C0BE"/>
<path d="M707.833 411H709.079L712.831 401.158V400.99H706.237V401.97H711.319L707.833 411ZM714.559 411.07C715.049 411.07 715.455 410.678 715.455 410.174C715.455 409.67 715.049 409.278 714.559 409.278C714.069 409.278 713.663 409.67 713.663 410.174C713.663 410.678 714.069 411.07 714.559 411.07ZM714.559 406.912C715.049 406.912 715.455 406.52 715.455 406.016C715.455 405.512 715.049 405.12 714.559 405.12C714.069 405.12 713.663 405.512 713.663 406.016C713.663 406.52 714.069 406.912 714.559 406.912ZM720.527 411.126C722.599 411.126 724.083 410.034 724.083 408.214C724.083 406.828 723.327 406.002 722.151 405.694C723.061 405.316 723.733 404.644 723.733 403.51C723.733 402.124 722.627 400.864 720.723 400.864C718.819 400.864 717.517 402.166 717.447 403.748H718.511C718.637 402.614 719.477 401.858 720.723 401.858C721.941 401.858 722.543 402.586 722.543 403.538C722.543 404.63 721.969 405.246 720.667 405.246H719.967V406.268H720.723C722.137 406.268 722.837 406.926 722.837 408.214C722.837 409.39 722.123 410.146 720.555 410.146C718.973 410.146 718.259 409.236 718.147 408.046H717.027C717.097 409.796 718.399 411.126 720.527 411.126ZM729.732 410.118C728.066 410.118 727.002 408.802 727.002 406.268V405.708C727.002 403.244 728.01 401.844 729.704 401.844C731.398 401.844 732.378 403.356 732.378 405.68V406.24C732.378 408.774 731.482 410.118 729.732 410.118ZM729.732 411.126C732.196 411.126 733.61 409.166 733.61 406.254V405.694C733.61 402.838 732.168 400.864 729.704 400.864C727.254 400.864 725.756 402.768 725.756 405.722V406.282C725.756 409.194 727.338 411.126 729.732 411.126ZM739.326 413.548H740.488V409.796C740.908 410.524 741.762 411.126 742.966 411.126C744.982 411.126 746.298 409.586 746.298 407.346V407.234C746.298 404.952 744.884 403.552 742.966 403.552C741.902 403.552 740.908 404.196 740.488 404.91V403.678H739.326V413.548ZM742.854 410.16C741.426 410.16 740.446 409.278 740.446 407.402V407.29C740.446 405.414 741.482 404.518 742.84 404.518C744.072 404.518 745.094 405.442 745.094 407.29V407.402C745.094 409.18 744.31 410.16 742.854 410.16ZM748.103 411H749.265V406.52C749.265 405.204 750.245 404.56 751.197 404.56C752.205 404.56 752.751 405.092 752.751 406.38V411H753.913V406.52C753.913 405.204 754.893 404.56 755.845 404.56C756.853 404.56 757.399 405.092 757.399 406.38V411H758.561V406.464C758.561 404.336 757.413 403.552 756.097 403.552C755.187 403.552 754.095 403.972 753.591 404.924C753.213 403.944 752.387 403.552 751.449 403.552C750.399 403.552 749.601 404.112 749.265 404.798V403.678H748.103V411Z" fill="#C1C0BE"/>
<path d="M832.97 411H834.188V400.99H833.054L830.73 402.67V403.804L832.97 402.194V411ZM840.675 410.118C839.009 410.118 837.945 408.802 837.945 406.268V405.708C837.945 403.244 838.953 401.844 840.647 401.844C842.341 401.844 843.321 403.356 843.321 405.68V406.24C843.321 408.774 842.425 410.118 840.675 410.118ZM840.675 411.126C843.139 411.126 844.553 409.166 844.553 406.254V405.694C844.553 402.838 843.111 400.864 840.647 400.864C838.197 400.864 836.699 402.768 836.699 405.722V406.282C836.699 409.194 838.281 411.126 840.675 411.126ZM847.433 411.07C847.923 411.07 848.329 410.678 848.329 410.174C848.329 409.67 847.923 409.278 847.433 409.278C846.943 409.278 846.537 409.67 846.537 410.174C846.537 410.678 846.943 411.07 847.433 411.07ZM847.433 406.912C847.923 406.912 848.329 406.52 848.329 406.016C848.329 405.512 847.923 405.12 847.433 405.12C846.943 405.12 846.537 405.512 846.537 406.016C846.537 406.52 846.943 406.912 847.433 406.912ZM853.4 411.126C855.472 411.126 856.956 410.034 856.956 408.214C856.956 406.828 856.2 406.002 855.024 405.694C855.934 405.316 856.606 404.644 856.606 403.51C856.606 402.124 855.5 400.864 853.596 400.864C851.692 400.864 850.39 402.166 850.32 403.748H851.384C851.51 402.614 852.35 401.858 853.596 401.858C854.814 401.858 855.416 402.586 855.416 403.538C855.416 404.63 854.842 405.246 853.54 405.246H852.84V406.268H853.596C855.01 406.268 855.71 406.926 855.71 408.214C855.71 409.39 854.996 410.146 853.428 410.146C851.846 410.146 851.132 409.236 851.02 408.046H849.9C849.97 409.796 851.272 411.126 853.4 411.126ZM862.605 410.118C860.939 410.118 859.875 408.802 859.875 406.268V405.708C859.875 403.244 860.883 401.844 862.577 401.844C864.271 401.844 865.251 403.356 865.251 405.68V406.24C865.251 408.774 864.355 410.118 862.605 410.118ZM862.605 411.126C865.069 411.126 866.483 409.166 866.483 406.254V405.694C866.483 402.838 865.041 400.864 862.577 400.864C860.127 400.864 858.629 402.768 858.629 405.722V406.282C858.629 409.194 860.211 411.126 862.605 411.126ZM872.2 413.548H873.362V409.796C873.782 410.524 874.636 411.126 875.84 411.126C877.856 411.126 879.172 409.586 879.172 407.346V407.234C879.172 404.952 877.758 403.552 875.84 403.552C874.776 403.552 873.782 404.196 873.362 404.91V403.678H872.2V413.548ZM875.728 410.16C874.3 410.16 873.32 409.278 873.32 407.402V407.29C873.32 405.414 874.356 404.518 875.714 404.518C876.946 404.518 877.968 405.442 877.968 407.29V407.402C877.968 409.18 877.184 410.16 875.728 410.16ZM880.977 411H882.139V406.52C882.139 405.204 883.119 404.56 884.071 404.56C885.079 404.56 885.625 405.092 885.625 406.38V411H886.787V406.52C886.787 405.204 887.767 404.56 888.719 404.56C889.727 404.56 890.273 405.092 890.273 406.38V411H891.435V406.464C891.435 404.336 890.287 403.552 888.971 403.552C888.061 403.552 886.969 403.972 886.465 404.924C886.087 403.944 885.261 403.552 884.323 403.552C883.273 403.552 882.475 404.112 882.139 404.798V403.678H880.977V411Z" fill="#C1C0BE"/>
<path d="M74 95H887.81" stroke="#171713"/>
<path d="M74 166H887.81" stroke="#171713"/>
<path d="M74 237H887.81" stroke="#171713"/>
<path d="M74 308H887.81" stroke="#171713"/>
<path d="M74 379H887.81" stroke="#171713"/>
<path d="M74 379C78.3101 379 83.847 370.742 87.8171 363.628C90.782 358.315 97.5073 356.086 102.814 359.062V359.062C107.803 361.861 114.117 360.075 116.902 355.078L130.784 330.158L144.836 303.357C147.712 297.871 153.914 295 159.958 296.356V296.356C165.238 297.54 170.719 295.505 173.946 291.161L181.755 280.647C185.29 275.888 191.296 273.657 197.081 274.955L202.212 276.107C205.009 276.734 207.568 278.151 209.586 280.188L225.424 296.18L233.119 303.95C239.206 310.097 249.218 309.834 254.974 303.375L263.28 294.057L269.373 285.17C275.455 276.299 288.622 276.524 294.398 285.596L297.284 290.129C299.72 293.956 303.757 296.474 308.265 296.98L313.379 297.554C317.632 298.031 321.886 296.669 325.071 293.81L337.869 282.323C338.616 281.653 339.294 280.91 339.892 280.104L346.872 270.707C351.925 263.904 362.382 264.843 366.143 272.437V272.437C370.403 281.042 382.76 280.791 386.669 272.021L390.675 263.031C393.567 256.542 400.919 253.316 407.653 255.582V255.582C412.053 257.064 416.904 256.228 420.556 253.36L426.672 248.557C430.758 245.348 436.507 245.348 440.592 248.557V248.557C446.545 253.232 455.324 250.825 458.059 243.766L466.231 222.68C469.089 215.304 477.546 211.832 484.762 215.07V215.07C488.359 216.684 492.474 216.684 496.07 215.07L499.809 213.393C505.539 210.821 512.264 212.092 516.661 216.576L529.36 229.528C529.896 230.075 530.473 230.58 531.086 231.038L538.673 236.713C543.78 240.533 550.743 240.706 556.034 237.145L564.563 231.403C565.602 230.703 566.55 229.876 567.384 228.94L583.249 211.141C584.444 209.8 585.389 208.256 586.038 206.581L599.717 171.284C602.104 165.123 608.916 161.931 615.178 164.039V164.039C619.869 165.617 625.049 164.245 628.342 160.55L638.02 149.692C640.48 146.932 643.872 145.178 647.546 144.766L655.292 143.897C658.827 143.5 662.389 144.373 665.34 146.36L678.02 154.896C679.133 155.644 680.34 156.241 681.611 156.669L696.709 161.75C697.98 162.178 699.188 162.774 700.301 163.523L710.638 170.482C714.938 173.376 720.427 173.846 725.156 171.724L726.454 171.141C732.423 168.463 739.44 169.962 743.793 174.846L755.408 187.878L771.128 205.514C773.214 207.855 775.982 209.483 779.041 210.169L783.752 211.226C789.536 212.524 795.543 210.293 799.078 205.534L812.192 187.878L829.313 168.67C830.508 167.329 831.453 165.784 832.102 164.109L847.932 123.262C849.293 119.749 851.918 116.879 855.315 115.252C863.643 111.265 879.191 104 881.938 104" stroke="#A2823C" stroke-width="2" stroke-linejoin="round"/>
<path d="M87.8171 363.628C83.847 370.742 78.3101 379 74 379H881.938V104C879.191 104 863.643 111.265 855.315 115.252C851.918 116.879 849.293 119.749 847.932 123.262L832.102 164.109C831.453 165.784 830.508 167.329 829.313 168.67L812.193 187.878L799.078 205.534C795.543 210.293 789.536 212.524 783.752 211.226L779.041 210.169C775.982 209.483 773.214 207.855 771.128 205.514L755.408 187.878L743.793 174.846C739.44 169.962 732.423 168.463 726.454 171.141L725.156 171.724C720.427 173.846 714.938 173.376 710.638 170.482L700.301 163.523C699.188 162.774 697.98 162.178 696.709 161.75L681.612 156.669C680.341 156.241 679.133 155.644 678.02 154.896L665.34 146.36C662.389 144.373 658.827 143.5 655.292 143.897L647.546 144.766C643.872 145.178 640.48 146.932 638.02 149.692L628.342 160.55C625.049 164.245 619.869 165.617 615.178 164.039C608.916 161.931 602.104 165.123 599.717 171.284L586.038 206.581C585.389 208.256 584.444 209.8 583.249 211.141L567.384 228.94C566.55 229.876 565.602 230.703 564.563 231.403L556.034 237.144C550.744 240.706 543.78 240.533 538.673 236.713L531.086 231.038C530.473 230.58 529.896 230.075 529.36 229.528L516.661 216.576C512.264 212.092 505.539 210.821 499.809 213.393L496.07 215.07C492.474 216.684 488.359 216.684 484.762 215.07C477.546 211.832 469.089 215.304 466.231 222.68L458.059 243.766C455.324 250.825 446.546 253.232 440.592 248.557C436.507 245.348 430.758 245.348 426.672 248.557L420.556 253.36C416.904 256.228 412.053 257.064 407.653 255.582C400.919 253.316 393.567 256.542 390.675 263.031L386.669 272.021C382.76 280.791 370.403 281.042 366.143 272.437C362.382 264.843 351.925 263.904 346.872 270.707L339.892 280.104C339.294 280.91 338.616 281.653 337.869 282.323L325.071 293.81C321.886 296.669 317.632 298.031 313.379 297.554L308.265 296.98C303.757 296.474 299.72 293.956 297.284 290.129L294.398 285.596C288.622 276.524 275.455 276.299 269.373 285.17L263.28 294.057L254.974 303.375C249.218 309.834 239.206 310.097 233.119 303.95L225.424 296.18L209.586 280.188C207.568 278.151 205.009 276.734 202.212 276.107L197.081 274.955C191.296 273.657 185.29 275.888 181.755 280.647L173.946 291.161C170.719 295.504 165.238 297.54 159.958 296.356C153.914 295 147.712 297.871 144.836 303.357L130.784 330.158L116.902 355.078C114.117 360.075 107.803 361.861 102.814 359.062C97.5073 356.086 90.782 358.315 87.8171 363.628Z" fill="url(#paint0_linear_3571_8937)" fill-opacity="0.05"/>
<circle opacity="0.2" cx="881" cy="104" r="8" fill="#A2823C"/>
<circle cx="881" cy="104" r="4" fill="#A2823C"/>
<path d="M3.792 22H5.184V11.696H8.512V10.56H0.464V11.696H3.792V22ZM13.493 22H15.157L19.109 10.56H17.797L14.389 20.656L10.981 10.56H9.605L13.493 22ZM21.0338 22H27.6578V20.864H22.4258V10.56H21.0338V22Z" fill="#C1C0BE"/>
<path d="M6.912 58.24H8.784V55.24C12.96 54.976 14.856 52.528 14.856 49.6C14.856 46.12 12.456 44.872 8.784 44.344V41.032C9.768 41.296 10.128 41.92 10.272 42.832H14.616C14.328 39.544 12.264 37.936 8.784 37.648V35.488H6.912V37.624C3.24 37.888 0.96 39.976 0.96 42.88C0.96 46.216 2.736 47.728 6.912 48.328V51.832C5.592 51.544 5.136 50.68 5.016 49.576H0.576C0.744 52.744 2.76 54.952 6.912 55.24V58.24ZM10.392 50.128C10.392 50.992 9.84 51.616 8.784 51.832V48.64C10.056 48.928 10.392 49.336 10.392 50.128ZM5.28 42.52C5.28 41.752 5.832 41.176 6.912 40.984V44.056C5.616 43.792 5.28 43.36 5.28 42.52ZM23.0243 55.288C27.3683 55.288 29.9843 52.888 29.9843 49.24C29.9843 45.52 27.9203 43.408 24.7763 43.408C22.6403 43.408 21.4163 44.296 20.7683 45.232L20.8643 41.44H28.8802V37.84H17.3123L16.9523 47.944H19.8803C20.4563 47.272 21.3203 46.72 22.7122 46.72C24.2003 46.72 25.0403 47.632 25.0403 49.168C25.0403 50.536 24.3923 51.592 22.9763 51.592C21.3923 51.592 20.9123 50.8 20.7443 49.6H16.2803C16.4003 52.816 18.4643 55.288 23.0243 55.288ZM39.4637 55H44.1917V51.712H46.3997V48.328H44.1917V37.84H38.2637L31.1117 49.864V51.712H39.4637V55ZM35.7437 48.328L39.5837 41.536V48.328H35.7437ZM50.2629 55.264C51.7029 55.264 52.7829 54.184 52.7829 52.84C52.7829 51.496 51.7029 50.416 50.2629 50.416C48.8469 50.416 47.8149 51.496 47.8149 52.84C47.8149 54.184 48.8469 55.264 50.2629 55.264ZM61.2861 55.288C65.6301 55.288 68.4621 53.344 68.4621 50.032C68.4621 48.088 67.4301 46.624 65.3901 45.928C66.8541 45.256 67.8141 44.128 67.8141 42.376C67.8141 39.328 64.9821 37.6 61.3341 37.6C57.8061 37.6 54.8541 39.328 54.8541 42.4C54.8541 44.128 55.7661 45.28 57.2541 45.952C55.2141 46.672 54.1341 48.184 54.1341 50.152C54.1341 53.488 56.9661 55.288 61.2861 55.288ZM61.3101 51.832C59.9661 51.832 58.9821 51.016 58.9821 49.648C58.9821 48.256 59.9901 47.464 61.3341 47.464C62.7021 47.464 63.6381 48.28 63.6381 49.648C63.6381 51.016 62.6781 51.832 61.3101 51.832ZM61.3581 44.68C60.2541 44.68 59.3181 43.96 59.3181 42.784C59.3181 41.632 60.2301 40.912 61.3341 40.912C62.4621 40.912 63.3741 41.632 63.3741 42.784C63.3741 43.96 62.4861 44.68 61.3581 44.68ZM71.4068 55H76.3988L82.3508 38.344V37.84H69.2948V41.824H76.2068L71.4068 55ZM92.0029 55.288C94.9549 55.288 97.3309 53.128 97.3309 48.808V48.616C97.3309 44.32 94.9549 42.112 92.0269 42.112C90.1309 42.112 88.8349 43.12 88.1149 44.32V36.928H83.8189V55H88.1149V53.056C88.7389 54.4 90.1309 55.288 92.0029 55.288ZM90.4909 52C88.9309 52 87.9949 50.92 87.9949 48.784V48.592C87.9949 46.48 88.9309 45.352 90.4909 45.352C92.0029 45.352 92.9629 46.408 92.9629 48.616V48.808C92.9629 50.872 92.0989 52 90.4909 52Z" fill="white"/>
<path d="M106.168 55H113.728V53.278H109.836L111.726 51.43C112.888 50.31 113.658 49.218 113.658 47.888C113.658 46.082 112.398 44.85 110.186 44.85C107.946 44.85 106.546 46.11 106.434 48.42H108.492C108.646 47.104 109.206 46.586 110.088 46.586C110.956 46.586 111.418 47.118 111.418 47.944C111.418 48.854 110.802 49.736 109.836 50.758L106.168 54.636V55ZM118.457 55.154C120.767 55.154 122.293 53.796 122.293 51.668C122.293 49.54 121.047 48.294 119.227 48.294C118.093 48.294 117.393 48.742 117.001 49.218L117.043 46.712H121.691V44.99H115.349L115.209 50.688H116.469C116.875 50.226 117.449 49.89 118.387 49.89C119.395 49.89 120.011 50.562 120.011 51.64C120.011 52.704 119.465 53.418 118.443 53.418C117.295 53.418 116.959 52.858 116.833 52.018H114.747C114.845 53.81 115.993 55.154 118.457 55.154ZM124.464 55.126C125.178 55.126 125.724 54.58 125.724 53.894C125.724 53.222 125.178 52.676 124.464 52.676C123.764 52.676 123.218 53.222 123.218 53.894C123.218 54.58 123.764 55.126 124.464 55.126ZM127.341 55H129.651L133.235 45.242V44.99H125.983V46.824H130.393L127.341 55ZM137.537 55.154C139.763 55.154 141.443 54.076 141.443 52.116C141.443 50.926 140.785 50.058 139.609 49.652C140.491 49.26 141.065 48.574 141.065 47.566C141.065 45.858 139.469 44.85 137.551 44.85C135.675 44.85 134.009 45.844 134.009 47.58C134.009 48.588 134.555 49.288 135.465 49.666C134.317 50.072 133.617 50.954 133.617 52.172C133.617 54.132 135.325 55.154 137.537 55.154ZM137.537 53.502C136.613 53.502 135.871 52.956 135.871 51.962C135.871 50.968 136.627 50.422 137.551 50.422C138.489 50.422 139.203 50.968 139.203 51.948C139.203 52.942 138.489 53.502 137.537 53.502ZM137.565 49.036C136.781 49.036 136.123 48.546 136.123 47.734C136.123 46.922 136.753 46.432 137.551 46.432C138.349 46.432 138.965 46.95 138.965 47.72C138.965 48.546 138.377 49.036 137.565 49.036ZM144.651 48.546C144.049 48.546 143.671 48.126 143.671 47.328C143.671 46.572 144.049 46.124 144.651 46.124C145.253 46.124 145.603 46.586 145.603 47.328C145.603 48.098 145.253 48.546 144.651 48.546ZM144.637 49.806C146.107 49.806 147.157 48.742 147.157 47.314C147.157 45.9 146.051 44.892 144.651 44.892C143.237 44.892 142.117 45.942 142.117 47.342C142.117 48.756 143.153 49.806 144.637 49.806ZM143.461 55H144.721L151.371 44.99H150.111L143.461 55ZM150.167 53.88C149.579 53.88 149.201 53.46 149.201 52.676C149.201 51.906 149.579 51.472 150.167 51.472C150.783 51.472 151.133 51.92 151.133 52.676C151.133 53.432 150.783 53.88 150.167 53.88ZM150.167 55.154C151.637 55.154 152.687 54.076 152.687 52.648C152.687 51.234 151.581 50.226 150.167 50.226C148.767 50.226 147.647 51.276 147.647 52.69C147.647 54.09 148.683 55.154 150.167 55.154Z" fill="#669F2A"/>
<rect x="734" y="32" width="83" height="38" rx="19" fill="#12120F"/>
<path d="M753.01 53.53V46.46H754.088C756.44 46.46 757.42 47.762 757.42 49.918V50.03C757.42 52.242 756.342 53.53 754.102 53.53H753.01ZM751.148 55H754.158C757.672 55 759.366 52.928 759.366 50.016V49.89C759.366 46.978 757.672 44.99 754.186 44.99H751.148V55ZM761.142 55H767.638V53.53H763.004V50.604H766.532V49.204H763.004V46.46H767.4V44.99H761.142V55ZM769.318 55H771.18V50.898H774.596V49.456H771.18V46.474H775.52V44.99H769.318V55ZM777.194 55H779.07V44.99H777.194V55Z" fill="white"/>
<path d="M788.604 48.9949L787.661 49.9376L792.997 55.2735L798.335 50.0079L797.398 49.0587L793.003 53.3933L788.604 48.9949Z" fill="white"/>
<rect x="825" y="32" width="78" height="38" rx="19" fill="#12120F"/>
<path d="M841.21 55H848.448V53.558H844.192L846.418 51.388C847.608 50.24 848.378 49.106 848.378 47.804C848.378 46.04 847.146 44.85 845.074 44.85C842.96 44.85 841.644 46.11 841.518 48.294H843.226C843.394 46.88 844.024 46.306 845.018 46.306C845.984 46.306 846.516 46.894 846.516 47.832C846.516 48.784 845.942 49.666 844.99 50.674L841.21 54.664V55ZM854.128 55H855.934V52.97H857.278V51.584H855.934V44.99H853.596L849.172 52.312V52.97H854.128V55ZM851.16 51.584L854.156 46.404V51.584H851.16ZM858.715 55H860.409V50.688C860.409 49.526 861.179 48.938 862.131 48.938C863.139 48.938 863.587 49.442 863.587 50.548V55H865.281V50.394C865.281 48.378 864.245 47.524 862.775 47.524C861.571 47.524 860.759 48.126 860.409 48.84V44.29H858.715V55Z" fill="white"/>
<path d="M874.604 48.9949L873.661 49.9376L878.997 55.2735L884.335 50.0079L883.398 49.0587L879.003 53.3933L874.604 48.9949Z" fill="white"/>
</g>
<defs>
<linearGradient id="paint0_linear_3571_8937" x1="477.969" y1="104" x2="477.969" y2="379" gradientUnits="userSpaceOnUse">
<stop stop-color="#FDDB92"/>
<stop offset="1" stop-color="#FDDB92" stop-opacity="0"/>
</linearGradient>
<clipPath id="clip0_3571_8937">
<path d="M0 16C0 7.16343 7.16344 0 16 0H908C916.837 0 924 7.16344 924 16V399C924 407.837 916.837 415 908 415H16C7.16347 415 0 407.837 0 399V16Z" fill="white"/>
</clipPath>
</defs>
</svg>
