<svg width="19" height="19" viewBox="0 0 19 19" fill="none" xmlns="http://www.w3.org/2000/svg">
<path d="M14.5134 2.13916C14.5134 2.5591 14.1725 2.89991 13.7526 2.89991C13.3327 2.89991 12.9918 2.5591 12.9918 2.13916H11.4703C11.4703 2.5591 11.1295 2.89991 10.7096 2.89991C10.2897 2.89991 9.94884 2.5591 9.94884 2.13916H8.42733C8.42733 2.5591 8.08651 2.89991 7.66658 2.89991C7.24664 2.89991 6.90583 2.5591 6.90583 2.13916H5.38432C5.38432 2.5591 5.0435 2.89991 4.62357 2.89991C4.20363 2.89991 3.86281 2.5591 3.86281 2.13916H2.34131V17.3542H3.86281C3.86281 16.9343 4.20363 16.5935 4.62357 16.5935C5.0435 16.5935 5.38432 16.9343 5.38432 17.3542H6.90583C6.90583 16.9343 7.24664 16.5935 7.66658 16.5935C8.08651 16.5935 8.42733 16.9343 8.42733 17.3542H9.94884C9.94884 16.9343 10.2897 16.5935 10.7096 16.5935C11.1295 16.5935 11.4703 16.9343 11.4703 17.3542H12.9918C12.9918 16.9343 13.3327 16.5935 13.7526 16.5935C14.1725 16.5935 14.5134 16.9343 14.5134 17.3542H16.0349V2.13916H14.5134ZM13.7526 13.5505H4.62357V12.0289H13.7526V13.5505ZM13.7526 10.5074H4.62357V8.98594H13.7526V10.5074ZM13.7526 7.46443H4.62357V5.94292H13.7526V7.46443Z" fill="white"/>
</svg>
