<svg width="37" height="36" viewBox="0 0 37 36" fill="none" xmlns="http://www.w3.org/2000/svg">
<g clip-path="url(#clip0_2263_1764)">
<path d="M18.8296 36.0009H17.7633L16.7965 35.9578L16.6605 35.949L16.0952 35.889L16.0432 35.8847C15.9765 35.8605 15.9081 35.8414 15.8385 35.8276C14.9354 35.7061 14.0433 35.5134 13.1706 35.2513C10.9749 34.601 8.92533 33.5332 7.13411 32.1066C7.00028 32.0005 6.86059 31.9018 6.72383 31.8002L6.66752 31.7533L6.22433 31.365L6.17021 31.3167C5.92375 31.0703 5.6751 30.818 5.42644 30.5708C5.28676 30.4311 5.14342 30.2943 5.00227 30.1554L4.95254 30.102L4.70242 29.8212C4.69934 29.813 4.69401 29.8059 4.68706 29.8007L4.53421 29.62C4.5301 29.6121 4.52375 29.6054 4.51593 29.601L4.36601 29.4211C4.36312 29.4127 4.35778 29.4053 4.35065 29.3999L4.0998 29.0869C4.09638 29.0787 4.09082 29.0717 4.08371 29.0664L3.89722 28.8222L3.85334 28.7644C3.82409 28.7117 3.79849 28.6569 3.76558 28.6071C3.51034 28.2305 3.24706 27.8583 3.00645 27.4721C1.41467 24.9069 0.498586 21.9802 0.343661 18.9652C0.334348 18.901 0.31967 18.8376 0.299781 18.7758C0.265576 17.6642 0.323795 16.5517 0.473839 15.4497C0.688942 13.9066 1.10698 12.3987 1.71711 10.9651C3.05033 7.85112 5.09076 5.29584 7.8457 3.32708C10.6006 1.35833 13.6759 0.250355 17.0561 0.0294917C17.797 -0.0195077 18.5437 0.010477 19.2875 0.00462632L19.7994 0.0375364L19.9201 0.0441184L20.4664 0.104088L20.5212 0.108476C20.6828 0.139192 20.8445 0.173565 21.0068 0.200624C22.115 0.374427 23.2054 0.647084 24.2649 1.01533C26.0227 1.63505 27.6733 2.52451 29.1576 3.65179L29.8713 4.19225L29.9269 4.23833L30.1032 4.38898L30.158 4.43725L30.4374 4.6881C30.4431 4.69467 30.4497 4.70034 30.4571 4.70492C30.6985 4.95138 30.9391 5.1993 31.1819 5.4443C31.2931 5.55619 31.4108 5.6637 31.5256 5.7712L31.5754 5.82532L31.8562 6.14418L31.9037 6.19903L32.0566 6.37748C32.0616 6.38472 32.0675 6.39135 32.0741 6.39723L32.2204 6.57787C32.2247 6.58528 32.2298 6.59216 32.2357 6.59834C32.3869 6.79337 32.538 6.9862 32.6892 7.17683C32.6943 7.18426 32.7004 7.19092 32.7075 7.19658C32.7314 7.25155 32.7595 7.30461 32.7916 7.35528C34.6492 9.88355 35.8094 12.8559 36.1557 15.9741C36.212 16.486 36.2493 17.0016 36.2947 17.5157V18.5169C36.2778 18.6712 36.2515 18.8248 36.2442 18.9798C36.1728 20.3903 35.9324 21.7872 35.5282 23.1404C34.9891 24.9599 34.1636 26.6818 33.0826 28.2415C32.9634 28.4141 32.8501 28.5903 32.7338 28.7651L32.6899 28.8229L32.5034 29.0672C32.4967 29.0728 32.4912 29.0797 32.4873 29.0876C32.404 29.1925 32.3203 29.2968 32.2365 29.4006C32.2299 29.4066 32.2247 29.4138 32.2211 29.4219C32.1714 29.4818 32.1217 29.5418 32.0749 29.6025C32.0675 29.6075 32.0613 29.614 32.0566 29.6215L31.9037 29.8007C31.897 29.8062 31.8918 29.8132 31.8884 29.8212L31.6382 30.1013C31.6222 30.1195 31.6053 30.1371 31.5885 30.1546C31.5505 30.1854 31.5095 30.2132 31.4752 30.2468L30.2319 31.463C30.1302 31.5625 30.0271 31.6605 29.9247 31.7592L29.8691 31.806C29.8216 31.8322 29.7757 31.8612 29.7317 31.893C27.2823 33.919 24.3369 35.255 21.1992 35.7633C20.9798 35.7984 20.7662 35.8459 20.5497 35.8869L20.4971 35.892L19.9171 35.9549L19.8294 35.9593L18.8296 36.0009ZM25.9704 17.9969C25.9704 15.311 25.9704 12.6248 25.9704 9.93835C25.9704 9.81476 25.9704 9.71895 25.8007 9.72919C25.7532 9.72919 25.6983 9.67653 25.6508 9.64216C25.4855 9.52295 25.3334 9.37742 25.155 9.28234C23.2871 8.28724 21.4166 7.29701 19.5434 6.31166C18.7331 5.88456 17.9125 5.8831 17.1015 6.31166C15.2185 7.30286 13.338 8.29845 11.46 9.29843C11.2918 9.38839 11.1499 9.52734 10.9948 9.64289C10.9517 9.67507 10.9027 9.73358 10.8617 9.72992C10.6606 9.71018 10.673 9.83523 10.673 9.97126C10.673 15.3217 10.673 20.6722 10.673 26.0226C10.673 26.0614 10.6599 26.1082 10.6767 26.1374C10.7039 26.1865 10.7422 26.2286 10.7886 26.2603C10.8537 26.3034 10.9349 26.3246 10.997 26.3693C11.1506 26.4775 11.2859 26.6157 11.4497 26.7035C13.3473 27.7137 15.2488 28.7185 17.1541 29.718C17.9242 30.1203 18.7199 30.1225 19.4908 29.718C21.3961 28.722 23.2976 27.7166 25.1952 26.702C25.3678 26.6099 25.5118 26.4636 25.6698 26.3437C25.7086 26.3144 25.7539 26.2639 25.7912 26.2705C25.9799 26.2903 25.9762 26.1776 25.9762 26.0423C25.9719 23.3569 25.9699 20.6751 25.9704 17.9969ZM8.93978 25.3783C8.7628 25.3783 8.58435 25.3863 8.40737 25.3783C8.2611 25.3703 8.22161 25.4302 8.23258 25.5641C8.24794 25.741 8.24501 25.9195 8.26329 26.0965C8.32326 26.6903 8.51049 27.2344 8.9215 27.6842C9.2623 28.0601 9.69964 28.3058 10.1224 28.572C10.2306 28.6408 10.2832 28.6203 10.3418 28.5165C10.5239 28.2049 10.7074 27.8948 10.902 27.5899C10.9714 27.4802 10.9414 27.4297 10.842 27.3705C10.5963 27.2191 10.3527 27.0633 10.118 26.8966C10.0135 26.8265 9.92422 26.7363 9.85526 26.6311C9.7863 26.526 9.73911 26.4081 9.71646 26.2844C9.67477 26.0387 9.64333 25.79 9.62577 25.5421C9.617 25.4193 9.57677 25.3761 9.45537 25.3812C9.2879 25.382 9.11238 25.3783 8.93978 25.3783ZM27.6042 10.3676C27.7878 10.3676 27.9699 10.3625 28.1542 10.3676C28.2807 10.3728 28.3238 10.3201 28.3136 10.2002C28.2975 10.0173 28.2924 9.8345 28.2741 9.65094C28.201 8.91448 27.9326 8.26725 27.3336 7.80285C27.0316 7.56883 26.6995 7.37502 26.3829 7.15928C26.301 7.10443 26.2593 7.1271 26.2125 7.20681C26.0231 7.52714 25.8314 7.84673 25.6325 8.16194C25.5689 8.26213 25.5864 8.31406 25.683 8.37403C25.9243 8.52029 26.1635 8.67387 26.3953 8.83696C26.5055 8.9086 26.6 9.00176 26.6733 9.11085C26.7465 9.21993 26.797 9.34269 26.8217 9.47176C26.8648 9.71676 26.8948 9.96614 26.9131 10.2148C26.9226 10.3267 26.9533 10.3735 27.0711 10.3676C27.2488 10.3618 27.425 10.3684 27.6042 10.3676Z" fill="#07A4FE"/>
<path d="M32.7104 7.19438C32.8077 7.31359 32.913 7.42695 33.003 7.552C34.1606 9.17432 35.0389 10.9788 35.6014 12.8908C35.9388 14.0312 36.1594 15.203 36.2596 16.388C36.2678 16.4304 36.2803 16.4718 36.2969 16.5116V17.5128C36.2516 17.0009 36.2143 16.4838 36.158 15.9711C35.8117 12.8529 34.6515 9.88063 32.7938 7.35235C32.762 7.30189 32.7342 7.24909 32.7104 7.19438Z" fill="#93D7FE"/>
<path d="M36.2984 19.4823C36.2655 19.7112 36.2377 19.9408 36.1975 20.1683C36.0644 20.9157 35.9627 21.6712 35.7836 22.4076C35.2392 24.6186 34.2706 26.7028 32.9314 28.5443C32.8702 28.621 32.8047 28.6943 32.7354 28.7637C32.8516 28.5889 32.965 28.4126 33.0842 28.24C34.1651 26.6804 34.9907 24.9584 35.5298 23.139C35.9339 21.7857 36.1743 20.3889 36.2458 18.9784C36.2531 18.8234 36.2794 18.6698 36.2962 18.5155L36.2984 19.4823Z" fill="#9EDBFE"/>
<path d="M19.8293 35.9564V36.001H18.8296L19.8293 35.9564Z" fill="#9EDBFE"/>
<path d="M16.7961 36.0009V35.9578L17.763 36.0009H16.7961Z" fill="#A1DCFE"/>
<path d="M25.9699 17.9969C25.9699 20.6785 25.9699 23.3601 25.9699 26.0416C25.9699 26.1769 25.9736 26.2896 25.7849 26.2698C25.7476 26.2662 25.7023 26.3166 25.6635 26.3429C25.5056 26.4629 25.3615 26.6091 25.1889 26.7013C23.2908 27.713 21.3894 28.7183 19.4845 29.7173C18.7136 30.1203 17.918 30.1181 17.1479 29.7173C15.2425 28.7217 13.341 27.7169 11.4434 26.7028C11.2796 26.615 11.1443 26.4768 10.9907 26.3685C10.9271 26.3239 10.8445 26.3027 10.7823 26.2596C10.736 26.2279 10.6976 26.1858 10.6704 26.1367C10.6536 26.1075 10.6668 26.0636 10.6668 26.0219C10.6668 20.6714 10.6668 15.321 10.6668 9.97053C10.6668 9.8345 10.6543 9.70944 10.8555 9.72919C10.8964 9.73285 10.9454 9.67434 10.9886 9.64216C11.1436 9.52661 11.2855 9.38766 11.4537 9.2977C13.3318 8.29724 15.2123 7.30164 17.0952 6.31093C17.9063 5.88383 18.7268 5.88529 19.5371 6.31093C21.4103 7.29677 23.2808 8.287 25.1487 9.28161C25.3271 9.37669 25.4792 9.52222 25.6445 9.64143C25.692 9.6758 25.7469 9.73138 25.7944 9.72846C25.9641 9.71749 25.9641 9.81402 25.9641 9.93762C25.9675 12.6255 25.9695 15.312 25.9699 17.9969ZM24.1694 25.6548C24.1065 25.6123 24.0685 25.5816 24.0275 25.5604C22.3089 24.6506 20.5903 23.7418 18.8716 22.834C18.7036 22.7391 18.5139 22.6892 18.3209 22.6892C18.1279 22.6892 17.9382 22.7391 17.7702 22.834C16.0516 23.7413 14.3329 24.6499 12.6143 25.5597C12.5726 25.5816 12.5346 25.6109 12.468 25.6518C12.5361 25.6935 12.5799 25.725 12.6267 25.7476C14.3405 26.6545 16.054 27.5609 17.7673 28.4667C17.9353 28.5617 18.125 28.6115 18.318 28.6115C18.511 28.6115 18.7007 28.5617 18.8687 28.4667C20.5829 27.5613 22.2965 26.6547 24.0092 25.7469C24.0604 25.7272 24.1014 25.6964 24.1694 25.6548ZM24.1826 10.3574C24.1043 10.3077 24.0656 10.2784 24.0231 10.2558C22.3055 9.34743 20.5871 8.44009 18.868 7.53372C18.7001 7.44021 18.511 7.39149 18.3189 7.39225C18.1267 7.39302 17.938 7.44325 17.771 7.53811C16.0528 8.44496 14.3349 9.3528 12.6172 10.2616C12.5756 10.2835 12.5368 10.3128 12.471 10.3538C12.539 10.3947 12.5829 10.4269 12.6289 10.4488L17.7483 13.1599C17.9226 13.2598 18.12 13.3124 18.3209 13.3124C18.5218 13.3124 18.7193 13.2598 18.8936 13.1599C20.422 12.3501 21.9493 11.5419 23.4754 10.7355C23.6999 10.617 23.9237 10.4964 24.1826 10.3574ZM12.4446 17.8302L17.6108 20.561V15.0979L12.4446 17.8302ZM24.146 17.8573V17.8009L19.0384 15.1001V20.5603L24.146 17.8573ZM16.8027 21.7706L16.81 21.7165L12.087 19.2183V24.2645L16.8027 21.7706ZM24.5599 19.2183L19.7887 21.7414L24.5599 24.2638V19.2183ZM12.0856 16.4429L16.5321 14.0901L12.0856 11.7389V16.4429ZM20.1112 14.0909L24.5541 16.4392V11.7411L20.1112 14.0909Z" fill="#FAFDFE"/>
<path d="M8.93984 25.3783C9.11244 25.3783 9.2843 25.3841 9.45616 25.3783C9.57757 25.3732 9.61779 25.4163 9.62657 25.5392C9.64485 25.7871 9.67556 26.0358 9.71725 26.2815C9.7399 26.4052 9.78709 26.523 9.85605 26.6282C9.92501 26.7333 10.0143 26.8236 10.1188 26.8936C10.3535 27.0604 10.597 27.2161 10.8428 27.3675C10.9422 27.4289 10.9722 27.4794 10.9027 27.5869C10.7097 27.8919 10.5246 28.202 10.3425 28.5135C10.2818 28.6174 10.2292 28.6378 10.1231 28.5691C9.70043 28.3029 9.26309 28.0572 8.92229 27.6813C8.51274 27.2315 8.32552 26.6874 8.26409 26.0935C8.2458 25.9165 8.24873 25.7381 8.23337 25.5611C8.2224 25.4273 8.26336 25.3673 8.40816 25.3754C8.58441 25.3841 8.76286 25.3783 8.93984 25.3783Z" fill="#F8FCFE"/>
<path d="M27.6039 10.3684C27.4262 10.3684 27.2485 10.3618 27.0708 10.3684C26.9531 10.3742 26.9245 10.3274 26.9128 10.2155C26.8931 9.96686 26.8646 9.71747 26.8214 9.47247C26.7968 9.3434 26.7463 9.22064 26.673 9.11156C26.5998 9.00248 26.5052 8.90932 26.395 8.83768C26.1632 8.67459 25.9241 8.5232 25.6827 8.37474C25.5862 8.31477 25.5686 8.26285 25.6323 8.16266C25.8312 7.84745 26.0228 7.52786 26.2122 7.20753C26.259 7.12782 26.3007 7.10515 26.3826 7.16C26.6993 7.3794 27.0313 7.56954 27.3334 7.80357C27.9323 8.26797 28.1978 8.9152 28.2739 9.65165C28.2921 9.83449 28.2973 10.0173 28.3133 10.2009C28.3236 10.3208 28.2804 10.3735 28.1539 10.3684C27.9711 10.3625 27.7904 10.3676 27.6039 10.3684Z" fill="#F8FCFE"/>
<path d="M3.85483 28.7629C3.74074 28.6225 3.61714 28.4887 3.51402 28.341C2.29675 26.6054 1.39601 24.6683 0.853426 22.619C0.585227 21.6217 0.409933 20.6018 0.329789 19.5722C0.310043 19.3082 0.309312 19.0413 0.299805 18.7758C0.319694 18.8376 0.334372 18.901 0.343685 18.9652C0.498609 21.9802 1.41469 24.9069 3.00648 27.4721C3.24709 27.8583 3.51329 28.2283 3.76707 28.6057C3.8029 28.6554 3.82557 28.7103 3.85483 28.7629Z" fill="#A1DCFE"/>
<path d="M20.5193 0.108429C20.7277 0.128175 20.9383 0.135488 21.1446 0.168398C22.4499 0.375175 23.7281 0.726676 24.9556 1.2164C26.6918 1.90898 28.3098 2.86726 29.7517 4.05691C29.7945 4.09875 29.8339 4.144 29.8694 4.19221L29.1556 3.65175C27.6714 2.52447 26.0208 1.635 24.263 1.01529C23.2034 0.647037 22.1131 0.37438 21.0049 0.200577C20.8433 0.173518 20.6809 0.139145 20.5193 0.108429Z" fill="#93D7FE"/>
<path d="M16.0433 35.8847C15.829 35.8649 15.6125 35.8591 15.4012 35.8233C12.3427 35.3243 9.46489 34.0441 7.0464 32.1066C6.93084 32.0152 6.83065 31.904 6.72388 31.8016C6.86064 31.9033 7.00032 32.002 7.13416 32.1081C8.92537 33.5347 10.975 34.6025 13.1706 35.2528C14.0434 35.5144 14.9355 35.7066 15.8385 35.8276C15.9081 35.8414 15.9766 35.8605 16.0433 35.8847Z" fill="#A1DCFE"/>
<path d="M29.8695 31.8039C29.762 31.9063 29.6618 32.0174 29.5469 32.1088C28.1045 33.2635 26.4931 34.1895 24.7691 34.8543C23.5631 35.3239 22.3076 35.6551 21.0269 35.8416C20.8689 35.8642 20.7095 35.8708 20.55 35.884C20.7694 35.843 20.9823 35.7955 21.1995 35.7604C24.3372 35.2524 27.2826 33.9166 29.732 31.8909C29.776 31.8591 29.8219 31.83 29.8695 31.8039Z" fill="#9EDBFE"/>
<path d="M31.5937 30.1525C31.579 30.1929 31.5583 30.2309 31.5323 30.2651C31.0369 30.7434 30.5401 31.2202 30.0418 31.6956C30.007 31.7211 29.9688 31.7417 29.9285 31.757C30.0309 31.6583 30.134 31.5603 30.2356 31.4608L31.4789 30.2446C31.5111 30.211 31.552 30.1832 31.5937 30.1525Z" fill="#9EDBFE"/>
<path d="M6.17038 31.3212C6.1302 31.3063 6.09229 31.2858 6.05776 31.2605C5.72476 30.9309 5.39322 30.5988 5.06314 30.2644C5.03763 30.2302 5.01719 30.1925 5.00244 30.1525C5.14359 30.2914 5.28693 30.4282 5.42662 30.5679C5.67527 30.818 5.92392 31.0703 6.17038 31.3212Z" fill="#A1DCFE"/>
<path d="M30.4568 4.70639C30.4678 4.70639 30.4824 4.70639 30.489 4.71151C30.8327 5.0528 31.1762 5.39604 31.5194 5.74123C31.526 5.74708 31.5231 5.76244 31.5253 5.77268C31.4105 5.66444 31.2927 5.55767 31.1815 5.44577C30.9387 5.20077 30.6981 4.95285 30.4568 4.70639Z" fill="#93D7FE"/>
<path d="M32.239 6.59615C32.3902 6.79117 32.5413 6.984 32.6924 7.17463C32.5418 6.98156 32.3906 6.78873 32.239 6.59615Z" fill="#93D7FE"/>
<path d="M16.66 35.949L16.0947 35.8891L16.66 35.949Z" fill="#A1DCFE"/>
<path d="M20.4969 35.8891L19.917 35.952L20.4969 35.8891Z" fill="#9EDBFE"/>
<path d="M19.918 0.0440674L20.4643 0.104037L19.918 0.0440674Z" fill="#93D7FE"/>
<path d="M6.6678 31.7578L6.22461 31.3694L6.6678 31.7578Z" fill="#A1DCFE"/>
<path d="M19.2876 0.00462341L19.7995 0.0375335L19.2876 0.00462341Z" fill="#93D7FE"/>
<path d="M4.35168 29.4007L4.10083 29.0876L4.35168 29.4007Z" fill="#A1DCFE"/>
<path d="M32.4908 29.0854C32.4075 29.1903 32.3238 29.2946 32.24 29.3984C32.3243 29.2946 32.408 29.1903 32.4908 29.0854Z" fill="#9EDBFE"/>
<path d="M31.575 5.8268L31.8558 6.1442L31.575 5.8268Z" fill="#93D7FE"/>
<path d="M4.95227 30.0991L4.70215 29.8183L4.95227 30.0991Z" fill="#A1DCFE"/>
<path d="M30.1584 4.43871L30.4378 4.68955L30.1584 4.43871Z" fill="#93D7FE"/>
<path d="M31.8895 29.819L31.6394 30.0991L31.8895 29.819Z" fill="#9EDBFE"/>
<path d="M4.08517 29.0649L3.89868 28.8207L4.08517 29.0649Z" fill="#A1DCFE"/>
<path d="M32.6909 28.8207L32.5044 29.0649L32.6909 28.8207Z" fill="#9EDBFE"/>
<path d="M32.0745 6.39502L32.2207 6.57566L32.0745 6.39502Z" fill="#93D7FE"/>
<path d="M31.9041 6.19685L32.0569 6.3753L31.9041 6.19685Z" fill="#93D7FE"/>
<path d="M4.51736 29.5996L4.36743 29.4197L4.51736 29.5996Z" fill="#A1DCFE"/>
<path d="M32.2246 29.4197C32.1749 29.4797 32.1252 29.5396 32.0784 29.6003C32.1252 29.5396 32.1786 29.4797 32.2246 29.4197Z" fill="#9EDBFE"/>
<path d="M4.68678 29.7978L4.53394 29.6201L4.68678 29.7978Z" fill="#A1DCFE"/>
<path d="M32.0579 29.6201L31.905 29.7993L32.0579 29.6201Z" fill="#9EDBFE"/>
<path d="M29.9246 4.23831L30.103 4.38897L29.9246 4.23831Z" fill="#93D7FE"/>
<path d="M24.1701 25.6547C24.1021 25.6964 24.059 25.7279 24.0129 25.7513C22.2996 26.6586 20.5861 27.5652 18.8723 28.4711C18.7043 28.566 18.5146 28.6159 18.3216 28.6159C18.1287 28.6159 17.939 28.566 17.7709 28.4711C16.0572 27.5657 14.3437 26.6593 12.6304 25.752C12.5836 25.7279 12.5397 25.6979 12.4717 25.6562C12.5353 25.6152 12.5733 25.5831 12.6179 25.564C14.3366 24.6552 16.0552 23.7467 17.7739 22.8384C17.9419 22.7434 18.1316 22.6936 18.3246 22.6936C18.5175 22.6936 18.7072 22.7434 18.8753 22.8384C20.5944 23.7462 22.313 24.655 24.0312 25.5648C24.0692 25.5823 24.1072 25.6123 24.1701 25.6547Z" fill="#08A4FE"/>
<path d="M24.1833 10.3574C23.9244 10.4964 23.7006 10.6171 23.4761 10.7355C21.9495 11.5429 20.4233 12.3501 18.8972 13.157C18.7229 13.2569 18.5255 13.3095 18.3246 13.3095C18.1236 13.3095 17.9262 13.2569 17.7519 13.157L12.6326 10.4459C12.5865 10.4211 12.5426 10.3918 12.4746 10.3508C12.539 10.3099 12.5777 10.2777 12.6209 10.2587C14.3356 9.35135 16.0525 8.44304 17.7717 7.53374C17.9388 7.43889 18.1275 7.38866 18.3196 7.38789C18.5117 7.38712 18.7008 7.43584 18.8687 7.52935C20.5878 8.43621 22.306 9.34404 24.0231 10.2528C24.0663 10.2784 24.105 10.3077 24.1833 10.3574Z" fill="#08A4FE"/>
<path d="M12.4448 17.8302L17.611 15.0979V20.561L12.4448 17.8302Z" fill="#09A4FE"/>
<path d="M24.1482 17.8572L19.0383 20.5632V15.1001L24.146 17.8009L24.1482 17.8572Z" fill="#09A4FE"/>
<path d="M16.8033 21.7707L12.0876 24.2631V19.2168L16.8106 21.7151L16.8033 21.7707Z" fill="#0AA5FE"/>
<path d="M24.5601 19.2183V24.2645L19.7888 21.7421L24.5601 19.2183Z" fill="#09A4FE"/>
<path d="M12.0859 16.4428V11.7389L16.5325 14.0901L12.0859 16.4428Z" fill="#0AA5FE"/>
<path d="M20.1113 14.0909L24.5542 11.7411V16.4392L20.1113 14.0909Z" fill="#09A4FE"/>
</g>
<defs>
<clipPath id="clip0_2263_1764">
<rect width="36.0058" height="36" fill="white" transform="translate(0.291992 0.00100708)"/>
</clipPath>
</defs>
</svg>
