<svg width="25" height="25" viewBox="0 0 25 25" fill="none" xmlns="http://www.w3.org/2000/svg">
<g clip-path="url(#clip0_2263_5122)">
<path d="M12.6394 1.63519C12.5709 1.6388 12.5024 1.64601 12.4375 1.66404C12.1454 1.72173 11.9003 1.91284 11.7741 2.18327L8.77405 8.29865L1.96636 9.30827C1.63103 9.36957 1.35338 9.61115 1.25242 9.93928C1.14785 10.2674 1.23439 10.6244 1.47598 10.866L6.35098 15.6544L5.22598 22.4044C5.16829 22.747 5.30531 23.0967 5.58656 23.3059C5.86781 23.5114 6.24281 23.5438 6.5529 23.3852L12.6106 20.1833L18.6683 23.3852C18.9784 23.5438 19.3534 23.5114 19.6346 23.3059C19.9159 23.0967 20.0529 22.747 19.9952 22.4044L18.8702 15.6544L23.7452 10.866C23.9868 10.6244 24.0733 10.2674 23.9688 9.93928C23.8678 9.61115 23.5902 9.36957 23.2548 9.30827L16.4471 8.29865L13.4471 2.18327C13.3029 1.86236 12.9928 1.64962 12.6394 1.63519ZM12.6106 4.69288L15.0337 9.56788C15.1707 9.83471 15.4303 10.0186 15.726 10.0583L21.1202 10.866L17.226 14.6737C17.0024 14.8792 16.8942 15.1821 16.9375 15.4813L17.8606 20.8756L13.0433 18.3371C12.7729 18.1929 12.4483 18.1929 12.1779 18.3371L7.36059 20.8756L8.28367 15.4813C8.32694 15.1821 8.21877 14.8792 7.99521 14.6737L4.10098 10.866L9.49521 10.0583C9.79088 10.0186 10.0505 9.83471 10.1875 9.56788L12.6106 4.69288Z" fill="white"/>
</g>
<defs>
<clipPath id="clip0_2263_5122">
<rect width="24" height="24" fill="white" transform="translate(0.610596 0.567871)"/>
</clipPath>
</defs>
</svg>
