<svg width="37" height="36" viewBox="0 0 37 36" fill="none" xmlns="http://www.w3.org/2000/svg">
<g clip-path="url(#clip0_2263_1813)">
<path d="M18.3024 35.998C17.9453 35.998 17.5881 36.0067 17.2313 35.9954C16.9683 35.987 16.7055 35.9562 16.4431 35.9284C16.1653 35.8996 15.8874 35.8692 15.6113 35.828C15.3419 35.7882 15.0734 35.7386 14.806 35.6867C14.5559 35.6385 14.3072 35.5843 14.0589 35.5274C13.8714 35.4846 13.684 35.439 13.4996 35.3842C13.1983 35.2948 12.8971 35.2011 12.6008 35.1003C12.2755 34.9899 11.9491 34.8797 11.6302 34.7505C11.2557 34.5986 10.886 34.435 10.5209 34.2598C10.1269 34.0697 9.73665 33.8706 9.35574 33.6573C8.98287 33.4471 8.61501 33.2252 8.26155 32.9842C7.86256 32.7121 7.46826 32.4296 7.09639 32.1217C6.58126 31.6952 6.07416 31.2567 5.59217 30.7938C5.20869 30.4191 4.84577 30.0239 4.505 29.6099C4.17028 29.2083 3.85598 28.7909 3.55607 28.3638C3.25616 27.9367 2.95927 27.4999 2.70354 27.0436C2.36247 26.4355 2.0398 25.8145 1.75194 25.1799C1.50592 24.6373 1.31011 24.0707 1.11263 23.5063C1.01656 23.2329 0.97104 22.9423 0.896397 22.6612C0.813387 22.3492 0.707951 22.0423 0.641007 21.727C0.565026 21.3705 0.519839 21.0073 0.463941 20.6468C0.410163 20.2972 0.357835 19.9468 0.306958 19.5958C0.299815 19.5409 0.296683 19.4855 0.297586 19.4301C0.296916 18.511 0.282523 17.5905 0.303945 16.67C0.313317 16.2684 0.392646 15.8667 0.447205 15.465C0.480677 15.2053 0.520843 14.9459 0.566365 14.6878C0.595485 14.5231 0.638329 14.3608 0.677826 14.1978C0.727364 13.993 0.778242 13.7881 0.831797 13.5843C0.896063 13.3413 0.961668 13.0986 1.03263 12.8569C1.12367 12.5453 1.19999 12.2276 1.31781 11.9254C1.58993 11.2225 1.87344 10.5246 2.22155 9.85014C2.55999 9.19406 2.93432 8.55713 3.34286 7.94224C3.89845 7.10056 4.53329 6.31395 5.2387 5.59319C5.62296 5.20391 6.00856 4.81363 6.41859 4.45313C6.8092 4.11005 7.22827 3.79876 7.64366 3.48513C7.94189 3.25953 8.24314 3.03426 8.56279 2.8418C9.08161 2.52917 9.61214 2.23529 10.1457 1.94944C10.5148 1.74539 10.8947 1.56158 11.2837 1.39883C11.8219 1.1826 12.3739 1.00051 12.9222 0.810725C13.201 0.714326 13.4811 0.617257 13.7677 0.54864C14.241 0.434836 14.7173 0.331407 15.1966 0.247393C15.5628 0.182792 15.9393 0.175094 16.3042 0.105807C17.3294 -0.0876604 18.365 0.0525867 19.395 0.015433C19.6293 0.00706498 19.8636 0.052252 20.0979 0.0780253C20.4848 0.120535 20.8727 0.156684 21.257 0.21526C21.5465 0.259108 21.8314 0.332746 22.1182 0.394669C22.2344 0.420108 22.3505 0.44722 22.4657 0.478684C23.0782 0.646043 23.7041 0.779931 24.2999 0.992477C24.9731 1.23406 25.6324 1.51263 26.2748 1.82693C26.824 2.09471 27.3429 2.42474 27.8714 2.73368C28.6024 3.16112 29.2772 3.6709 29.9202 4.21649C30.5545 4.75438 31.1684 5.31771 31.7052 5.95703C32.1046 6.43266 32.521 6.89625 32.8898 7.39464C33.2445 7.87903 33.5733 8.38181 33.8749 8.90088C34.1708 9.40295 34.4305 9.92913 34.6903 10.4526C34.8158 10.7047 34.9065 10.9741 35.0092 11.2372C35.1709 11.6509 35.3406 12.062 35.4859 12.4814C35.5806 12.7555 35.6362 13.0427 35.7118 13.3232C35.7681 13.531 35.8286 13.7372 35.8859 13.9448C35.9215 14.0581 35.9515 14.1732 35.9756 14.2895C36.0472 14.7082 36.1095 15.1287 36.1804 15.5477C36.4013 16.8588 36.2976 18.1806 36.3063 19.4974C36.3083 19.8435 36.2183 20.1899 36.1677 20.535C36.1296 20.7941 36.0904 21.0532 36.0449 21.3109C36.0157 21.4759 35.9779 21.6393 35.9371 21.8023C35.8869 22.0125 35.8341 22.2221 35.7788 22.4312C35.7154 22.6689 35.6497 22.906 35.5816 23.1425C35.5097 23.3922 35.4437 23.6446 35.3567 23.8882C35.2512 24.1835 35.1271 24.4717 35.0103 24.7629C34.8971 25.0454 34.8051 25.3389 34.6655 25.6077C34.3412 26.2319 34.0141 26.8569 33.65 27.4584C33.3233 27.9969 32.9561 28.5127 32.5862 29.0232C32.3622 29.3268 32.1202 29.6167 31.8616 29.8914C31.4803 30.3021 31.0917 30.7075 30.69 31.0964C30.1545 31.6142 29.5922 32.1042 28.9726 32.5247C28.663 32.7345 28.3701 32.9722 28.0511 33.165C27.5326 33.4776 27.0024 33.7715 26.4686 34.0577C26.0995 34.2617 25.7196 34.4454 25.3305 34.6079C24.7926 34.8242 24.2407 35.0063 23.6924 35.1967C23.4176 35.2921 23.1425 35.3929 22.8596 35.4571C22.3053 35.5833 21.747 35.6938 21.186 35.7955C20.7509 35.8745 20.3121 35.9294 19.8743 35.9964C19.8298 36.0003 19.785 36.0011 19.7404 35.9987L18.3024 35.998ZM19.8709 18.9756V19.1623C19.8709 20.9012 19.8669 22.6404 19.8749 24.3793C19.874 24.6967 19.9022 25.0136 19.9593 25.3259C20.0809 25.9766 20.3324 26.5961 20.6986 27.1476C21.0649 27.699 21.5384 28.1711 22.091 28.5355C22.6437 28.9 23.264 29.1495 23.9151 29.269C24.5662 29.3886 25.2348 29.3758 25.8808 29.2314C28.2372 28.7139 29.7732 26.654 29.7575 24.4342C29.7264 20.1257 29.7488 15.8172 29.7471 11.5083C29.7521 11.2854 29.7419 11.0624 29.7167 10.8409C29.3381 8.0845 26.7628 6.11736 23.8862 6.67567C21.569 7.12553 19.8783 9.21953 19.877 11.5833C19.877 13.3111 19.877 15.0391 19.877 16.7671V16.9713L16.7306 17.0837V16.9107C16.7306 15.1938 16.7306 13.477 16.7306 11.7604C16.7306 11.5261 16.7185 11.2918 16.7018 11.0608C16.6473 10.2973 16.4006 9.59609 15.9939 8.95209C14.9097 7.22896 12.891 6.37475 10.8593 6.7252C8.52598 7.12687 6.83632 9.3571 6.85071 11.5237C6.87983 15.8767 6.85305 20.2301 6.86544 24.5835C6.86979 26.1232 7.51412 27.3847 8.7094 28.3363C10.0861 29.4322 11.6462 29.6688 13.3235 29.1731C15.2786 28.5947 16.7075 26.7267 16.7269 24.6916C16.744 22.8971 16.7323 21.102 16.7333 19.3073V19.0944L19.8709 18.9756Z" fill="#00D8AF"/>
<path d="M19.8704 18.9756L16.7328 19.0931V19.306C16.7328 21.1007 16.7435 22.8958 16.7264 24.6902C16.707 26.7253 15.2781 28.5934 13.323 29.1718C11.6457 29.6685 10.0856 29.4319 8.70888 28.335C7.5136 27.3834 6.86793 26.1212 6.86492 24.5821C6.85253 20.2288 6.87931 15.8754 6.85019 11.5224C6.8358 9.35678 8.52579 7.12689 10.8588 6.72489C12.8905 6.37478 14.9089 7.22864 15.9934 8.95177C16.3994 9.59711 16.6467 10.2983 16.7013 11.0605C16.718 11.2931 16.7297 11.5268 16.7301 11.7601C16.7325 13.4767 16.7325 15.1935 16.7301 16.9104V17.0834L19.8764 16.971V16.7671C19.8764 15.0391 19.8764 13.3112 19.8764 11.5833C19.8764 9.21955 21.5684 7.12555 23.8857 6.67569C26.7623 6.11738 29.3376 8.08452 29.7162 10.8409C29.7414 11.0625 29.7516 11.2854 29.7466 11.5084C29.7466 15.8172 29.7259 20.1257 29.757 24.4342C29.7727 26.6524 28.2367 28.7139 25.8803 29.2314C25.2342 29.3758 24.5657 29.3886 23.9146 29.269C23.2635 29.1495 22.6431 28.9 22.0905 28.5356C21.5379 28.1711 21.0644 27.699 20.6981 27.1476C20.3319 26.5962 20.0804 25.9766 19.9588 25.3259C19.9017 25.0136 19.8735 24.6967 19.8744 24.3793C19.8664 22.6388 19.8704 20.9012 19.8704 19.1624V18.9756ZM8.87825 19.465C8.94519 19.4221 8.98168 19.402 9.01448 19.3756C9.49246 18.9927 10.0253 18.6971 10.583 18.4574C11.8617 17.9031 13.2046 17.5106 14.5805 17.2889C14.7198 17.2669 14.7589 17.222 14.7586 17.0811C14.7532 15.2418 14.7556 13.4022 14.7539 11.5629C14.7539 11.4237 14.7462 11.2846 14.7308 11.1462C14.5089 9.12382 12.4065 8.00586 10.6436 8.80718C9.47003 9.34072 8.88662 10.3 8.88126 11.5853C8.87089 14.1603 8.87825 16.7353 8.87825 19.3106V19.465ZM21.9263 18.821C21.9246 18.8588 21.9219 18.8916 21.9219 18.9247C21.9219 20.836 21.9196 22.7475 21.9259 24.6588C21.9299 24.8642 21.9569 25.0686 22.0066 25.268C22.3577 26.7705 23.7947 27.6646 25.2252 27.4751C26.6558 27.2857 27.7735 26.0582 27.7778 24.6092C27.7855 21.9901 27.7801 19.3706 27.7795 16.7514C27.7773 16.7115 27.7729 16.6717 27.7664 16.6322C26.0128 17.9008 23.9951 18.4223 21.9263 18.821ZM21.8476 16.7829C22.3892 16.661 22.9033 16.5626 23.4077 16.4284C24.5709 16.1184 25.6955 15.7141 26.6388 14.9315C27.1653 14.4947 27.576 13.9679 27.6817 13.2723C27.7309 12.9507 27.7122 12.6176 27.7095 12.2896C27.7062 11.8618 27.7316 11.4277 27.67 11.0069C27.3778 9.01236 25.2001 7.9523 23.405 8.88885C22.3467 9.44013 21.8506 10.3636 21.8476 11.5489C21.8442 13.2258 21.8476 14.9024 21.8476 16.5793V16.7829ZM14.7797 19.3963C14.7462 19.3997 14.7034 19.4014 14.6605 19.4091C13.8204 19.562 12.9869 19.7481 12.1873 20.051C11.4107 20.3453 10.6389 20.6535 9.99855 21.2098C9.41681 21.7139 8.979 22.3107 8.91306 23.099C8.87089 23.6011 8.89197 24.1125 8.90101 24.6193C8.90478 24.8362 8.93171 25.0521 8.98134 25.2633C9.32309 26.7026 10.6245 27.6267 12.1056 27.4754C13.2306 27.3603 14.0279 26.7725 14.5012 25.7476C14.7067 25.3021 14.7402 24.8255 14.7455 24.3438C14.7549 23.4692 14.772 22.5946 14.779 21.7196C14.785 20.9518 14.7797 20.1846 14.7797 19.3963Z" fill="#F8F9F9"/>
<path d="M8.87876 19.4649V19.3103C8.87876 16.735 8.87139 14.16 8.88177 11.585C8.88712 10.3 9.47054 9.34072 10.6441 8.80685C12.407 8.00553 14.5094 9.12349 14.7313 11.1459C14.7467 11.2842 14.7544 11.4234 14.7544 11.5626C14.7561 13.4019 14.7544 15.2415 14.7591 17.0807C14.7591 17.223 14.7203 17.2665 14.581 17.2886C13.2051 17.5103 11.8622 17.903 10.5835 18.4574C10.0258 18.6971 9.49296 18.993 9.01499 19.3756C8.98218 19.402 8.94436 19.4221 8.87876 19.4649Z" fill="#01D8B0"/>
<path d="M21.9269 18.8209C23.9958 18.4223 26.0135 17.9008 27.7671 16.6322C27.7736 16.6716 27.778 16.7114 27.7801 16.7513C27.7801 19.3705 27.7862 21.99 27.7785 24.6092C27.7741 26.0582 26.6531 27.287 25.2259 27.4751C23.7986 27.6632 22.3583 26.7722 22.0072 25.2679C21.9576 25.0685 21.9305 24.8642 21.9266 24.6587C21.9202 22.7475 21.9225 20.8359 21.9225 18.9247C21.9225 18.8915 21.9252 18.8587 21.9269 18.8209Z" fill="#00D8AF"/>
<path d="M21.848 16.7828V16.5803C21.848 14.9034 21.8456 13.2268 21.848 11.5498C21.8506 10.3636 22.3467 9.4411 23.4044 8.88882C25.1995 7.9516 27.3772 9.01233 27.6694 11.0069C27.731 11.4277 27.7055 11.8618 27.7089 12.2896C27.7116 12.6176 27.7303 12.9506 27.6811 13.2723C27.5747 13.9678 27.1646 14.4947 26.6381 14.9315C25.6949 15.7141 24.5702 16.1184 23.4071 16.4284C22.903 16.5626 22.3889 16.661 21.848 16.7828Z" fill="#01D8AF"/>
<path d="M14.78 19.3963C14.78 20.1839 14.7843 20.9517 14.78 21.7196C14.7736 22.5945 14.7565 23.4692 14.7465 24.3438C14.7411 24.8254 14.7077 25.3021 14.5022 25.7476C14.0289 26.7728 13.2302 27.3602 12.1066 27.4754C10.6255 27.6267 9.32407 26.7015 8.98233 25.2632C8.93269 25.052 8.90576 24.8362 8.902 24.6192C8.89296 24.1125 8.87187 23.6027 8.91404 23.099C8.98099 22.3107 9.41779 21.7139 9.99953 21.2098C10.6398 20.6552 11.4117 20.3452 12.1883 20.051C12.9886 19.7498 13.8213 19.562 14.6615 19.409C14.7037 19.4013 14.7472 19.3996 14.78 19.3963Z" fill="#01D8B0"/>
</g>
<defs>
<clipPath id="clip0_2263_1813">
<rect width="36.0321" height="36" fill="white" transform="translate(0.291992 0.00100708)"/>
</clipPath>
</defs>
</svg>
