<svg width="37" height="36" viewBox="0 0 37 36" fill="none" xmlns="http://www.w3.org/2000/svg">
<g clip-path="url(#clip0_2263_1723)">
<path d="M18.2824 0.000704858C28.1936 -0.0140021 36.2747 8.0358 36.2971 17.9489C36.3201 27.9132 28.2486 36.0045 18.2907 36.0007C8.33285 35.9969 0.299031 27.9439 0.291997 17.9726C0.284963 8.07545 8.35331 0.0154118 18.2824 0.000704858ZM22.58 7.64767V8.03133C22.58 10.3435 22.5871 12.6551 22.58 14.9672C22.5724 16.7052 21.3606 18.2226 19.6585 18.5711C19.0913 18.6868 18.4947 18.6715 17.9109 18.6862C16.6116 18.7181 15.4996 19.7048 15.4062 21.0022C15.3423 21.861 15.3781 22.7287 15.3711 23.5893C15.3711 23.6821 15.3807 23.7754 15.3877 23.8956C16.4709 23.8956 17.5349 23.9116 18.5983 23.8892C19.2774 23.8752 19.9648 23.8592 20.6336 23.7511C24.4811 23.1302 27.6367 19.6095 27.755 15.7352C27.8278 13.3616 27.7754 10.9842 27.7709 8.60809C27.7709 8.10742 27.3687 7.66046 26.8757 7.65342C25.4562 7.63488 24.0399 7.64767 22.58 7.64767ZM21.1931 12.1026C19.9443 12.1026 18.6993 12.0943 17.4518 12.1026C12.743 12.1403 8.87317 15.9954 8.83225 20.7023C8.81306 22.886 8.82905 25.0703 8.83225 27.2546C8.83225 27.9388 9.2466 28.3531 9.92376 28.3544C11.192 28.3569 12.46 28.3569 13.7277 28.3544C13.8211 28.3544 13.9151 28.3461 14.0372 28.3403V27.9471C14.0411 25.5812 14.0116 23.2153 14.0609 20.8494C14.0961 19.1677 15.327 17.7494 16.9786 17.4201C17.5362 17.3095 18.1213 17.3248 18.6948 17.3108C19.9277 17.2801 21.0377 16.4156 21.1701 15.193C21.2801 14.1891 21.1931 13.1602 21.1931 12.1026ZM8.84504 15.7051C8.87467 15.6778 8.90244 15.6486 8.92816 15.6175C10.1154 13.6992 11.7517 12.3102 13.8371 11.4504C13.9266 11.4139 14.0148 11.2509 14.0168 11.1454C14.0315 10.3467 14.0283 9.54678 14.0232 8.74877C14.0193 8.04539 13.6133 7.64575 12.9061 7.64511C11.6489 7.64511 10.3914 7.64511 9.13342 7.64511C9.0407 7.64511 8.94799 7.6547 8.84376 7.66046L8.84504 15.7051ZM27.7633 20.3174C27.7334 20.3402 27.7053 20.3654 27.6795 20.3928C26.4902 22.3111 24.8524 23.6985 22.7661 24.5549C22.6779 24.5907 22.5928 24.755 22.5909 24.8612C22.5762 25.6489 22.5813 26.4374 22.5839 27.2271C22.5839 27.9464 22.995 28.3569 23.7118 28.3576C24.9583 28.3576 26.2048 28.3576 27.4512 28.3576H27.7633V20.3174Z" fill="#02943F"/>
<path d="M22.58 7.64795C24.0398 7.64795 25.4574 7.63517 26.8712 7.65499C27.3661 7.66202 27.7664 8.10898 27.7664 8.60966C27.7709 10.9858 27.8233 13.3632 27.7504 15.7368C27.6321 19.6111 24.4765 23.1318 20.6291 23.7527C19.9602 23.8607 19.2729 23.8767 18.5938 23.8908C17.5304 23.9132 16.4664 23.8972 15.3832 23.8972C15.3762 23.777 15.3659 23.6836 15.3666 23.5909C15.3736 22.7283 15.3397 21.8644 15.4017 21.0038C15.4951 19.7064 16.6071 18.7197 17.9064 18.6877C18.4902 18.673 19.0868 18.6877 19.654 18.5726C21.3561 18.2242 22.5678 16.7068 22.5755 14.9688C22.5851 12.6566 22.5755 10.3451 22.5755 8.03289L22.58 7.64795Z" fill="#FDFDFD"/>
<path d="M21.1932 12.1029C21.1932 13.1605 21.2801 14.1893 21.1708 15.1965C21.0384 16.421 19.9284 17.2836 18.6956 17.3143C18.1201 17.3283 17.5369 17.3143 16.9793 17.4236C15.3277 17.7529 14.0968 19.1712 14.0616 20.8529C14.0124 23.2188 14.0418 25.5847 14.0379 27.9506V28.3438C13.9158 28.3496 13.8218 28.3579 13.7285 28.3579C12.4607 28.3579 11.1927 28.3579 9.92448 28.3579C9.24732 28.3579 8.83744 27.9422 8.83297 27.2581C8.82913 25.0738 8.81315 22.8895 8.83297 20.7058C8.87389 15.9989 12.7437 12.1438 17.4525 12.1061C18.6981 12.0946 19.9444 12.1029 21.1932 12.1029Z" fill="#FDFDFD"/>
<path d="M8.84497 15.7054V7.66075C8.9492 7.65499 9.04192 7.6454 9.13463 7.6454C10.3918 7.6454 11.6493 7.6454 12.9073 7.6454C13.6145 7.6454 14.0205 8.04441 14.0244 8.74906C14.0295 9.54835 14.0327 10.3476 14.018 11.1457C14.018 11.2512 13.9278 11.4142 13.8383 11.4507C11.7495 12.3101 10.1132 13.6991 8.92938 15.6178C8.90325 15.6489 8.87505 15.6782 8.84497 15.7054Z" fill="#FCFDFC"/>
<path d="M27.7632 20.3177V28.3566H27.4511C26.2042 28.3566 24.9578 28.3566 23.7117 28.3566C22.9949 28.3566 22.5857 27.9454 22.5838 27.2261C22.5838 26.4377 22.5761 25.6492 22.5908 24.8602C22.5908 24.754 22.6778 24.5897 22.766 24.5539C24.8548 23.697 26.4926 22.3097 27.6794 20.3918C27.7053 20.3649 27.7333 20.3401 27.7632 20.3177Z" fill="#FCFDFD"/>
</g>
<defs>
<clipPath id="clip0_2263_1723">
<rect width="36.0051" height="36" fill="white" transform="translate(0.291992 0.000999451)"/>
</clipPath>
</defs>
</svg>
