<svg width="25" height="24" viewBox="0 0 25 24" fill="none" xmlns="http://www.w3.org/2000/svg">
<path d="M12.042 4C4.04199 4 1.04199 12 1.04199 12C1.04199 12 4.04199 20 12.042 20C20.042 20 23.042 12 23.042 12C23.042 12 20.042 4 12.042 4ZM12.042 7C14.803 7 17.042 9.239 17.042 12C17.042 14.761 14.803 17 12.042 17C9.28099 17 7.04199 14.761 7.04199 12C7.04199 9.239 9.28099 7 12.042 7ZM12.042 9C11.2463 9 10.4833 9.31607 9.92067 9.87868C9.35806 10.4413 9.04199 11.2044 9.04199 12C9.04199 12.7956 9.35806 13.5587 9.92067 14.1213C10.4833 14.6839 11.2463 15 12.042 15C12.8376 15 13.6007 14.6839 14.1633 14.1213C14.7259 13.5587 15.042 12.7956 15.042 12C15.042 11.2044 14.7259 10.4413 14.1633 9.87868C13.6007 9.31607 12.8376 9 12.042 9Z" fill="#CACACA"/>
</svg>
