<svg width="25" height="24" viewBox="0 0 25 24" fill="none" xmlns="http://www.w3.org/2000/svg">
<path d="M4.04207 2.99999C3.90956 2.99812 3.778 3.0226 3.65503 3.07201C3.53206 3.12143 3.42014 3.19479 3.32577 3.28783C3.2314 3.38088 3.15647 3.49175 3.10532 3.61401C3.05417 3.73626 3.02783 3.86747 3.02783 3.99999C3.02783 4.13252 3.05417 4.26372 3.10532 4.38598C3.15647 4.50824 3.2314 4.61911 3.32577 4.71215C3.42014 4.8052 3.53206 4.87856 3.65503 4.92797C3.778 4.97739 3.90956 5.00187 4.04207 4.99999H20.0421C20.1746 5.00187 20.3061 4.97739 20.4291 4.92797C20.5521 4.87856 20.664 4.8052 20.7584 4.71215C20.8527 4.61911 20.9277 4.50824 20.9788 4.38598C21.03 4.26372 21.0563 4.13252 21.0563 3.99999C21.0563 3.86747 21.03 3.73626 20.9788 3.61401C20.9277 3.49175 20.8527 3.38088 20.7584 3.28783C20.664 3.19479 20.5521 3.12143 20.4291 3.07201C20.3061 3.0226 20.1746 2.99812 20.0421 2.99999H4.04207ZM5.04207 6.99999C3.93907 6.99999 3.04207 7.89699 3.04207 8.99999V11C3.04207 12.103 3.93907 13 5.04207 13H7.04207C8.14507 13 9.04207 12.103 9.04207 11V8.99999C9.04207 7.89699 8.14507 6.99999 7.04207 6.99999H5.04207ZM12.0421 6.99999C11.9096 6.99812 11.778 7.0226 11.655 7.07201C11.5321 7.12143 11.4201 7.19479 11.3258 7.28783C11.2314 7.38088 11.1565 7.49175 11.1053 7.61401C11.0542 7.73626 11.0278 7.86747 11.0278 7.99999C11.0278 8.13252 11.0542 8.26372 11.1053 8.38598C11.1565 8.50824 11.2314 8.61911 11.3258 8.71215C11.4201 8.8052 11.5321 8.87856 11.655 8.92797C11.778 8.97739 11.9096 9.00187 12.0421 8.99999H20.0421C20.1746 9.00187 20.3061 8.97739 20.4291 8.92797C20.5521 8.87856 20.664 8.8052 20.7584 8.71215C20.8527 8.61911 20.9277 8.50824 20.9788 8.38598C21.03 8.26372 21.0563 8.13252 21.0563 7.99999C21.0563 7.86747 21.03 7.73626 20.9788 7.61401C20.9277 7.49175 20.8527 7.38088 20.7584 7.28783C20.664 7.19479 20.5521 7.12143 20.4291 7.07201C20.3061 7.0226 20.1746 6.99812 20.0421 6.99999H12.0421ZM12.0421 11C11.9096 10.9981 11.778 11.0226 11.655 11.072C11.5321 11.1214 11.4201 11.1948 11.3258 11.2878C11.2314 11.3809 11.1565 11.4917 11.1053 11.614C11.0542 11.7363 11.0278 11.8675 11.0278 12C11.0278 12.1325 11.0542 12.2637 11.1053 12.386C11.1565 12.5082 11.2314 12.6191 11.3258 12.7122C11.4201 12.8052 11.5321 12.8786 11.655 12.928C11.778 12.9774 11.9096 13.0019 12.0421 13H17.0421C17.1746 13.0019 17.3061 12.9774 17.4291 12.928C17.5521 12.8786 17.664 12.8052 17.7584 12.7122C17.8527 12.6191 17.9277 12.5082 17.9788 12.386C18.03 12.2637 18.0563 12.1325 18.0563 12C18.0563 11.8675 18.03 11.7363 17.9788 11.614C17.9277 11.4917 17.8527 11.3809 17.7584 11.2878C17.664 11.1948 17.5521 11.1214 17.4291 11.072C17.3061 11.0226 17.1746 10.9981 17.0421 11H12.0421ZM5.04207 15C3.93907 15 3.04207 15.897 3.04207 17V19C3.04207 20.103 3.93907 21 5.04207 21H7.04207C8.14507 21 9.04207 20.103 9.04207 19V17C9.04207 15.897 8.14507 15 7.04207 15H5.04207ZM12.0421 15C11.9096 14.9981 11.778 15.0226 11.655 15.072C11.5321 15.1214 11.4201 15.1948 11.3258 15.2878C11.2314 15.3809 11.1565 15.4917 11.1053 15.614C11.0542 15.7363 11.0278 15.8675 11.0278 16C11.0278 16.1325 11.0542 16.2637 11.1053 16.386C11.1565 16.5082 11.2314 16.6191 11.3258 16.7122C11.4201 16.8052 11.5321 16.8786 11.655 16.928C11.778 16.9774 11.9096 17.0019 12.0421 17H20.0421C20.1746 17.0019 20.3061 16.9774 20.4291 16.928C20.5521 16.8786 20.664 16.8052 20.7584 16.7122C20.8527 16.6191 20.9277 16.5082 20.9788 16.386C21.03 16.2637 21.0563 16.1325 21.0563 16C21.0563 15.8675 21.03 15.7363 20.9788 15.614C20.9277 15.4917 20.8527 15.3809 20.7584 15.2878C20.664 15.1948 20.5521 15.1214 20.4291 15.072C20.3061 15.0226 20.1746 14.9981 20.0421 15H12.0421ZM12.0421 19C11.9096 18.9981 11.778 19.0226 11.655 19.072C11.5321 19.1214 11.4201 19.1948 11.3258 19.2878C11.2314 19.3809 11.1565 19.4917 11.1053 19.614C11.0542 19.7363 11.0278 19.8675 11.0278 20C11.0278 20.1325 11.0542 20.2637 11.1053 20.386C11.1565 20.5082 11.2314 20.6191 11.3258 20.7122C11.4201 20.8052 11.5321 20.8786 11.655 20.928C11.778 20.9774 11.9096 21.0019 12.0421 21H17.0421C17.1746 21.0019 17.3061 20.9774 17.4291 20.928C17.5521 20.8786 17.664 20.8052 17.7584 20.7122C17.8527 20.6191 17.9277 20.5082 17.9788 20.386C18.03 20.2637 18.0563 20.1325 18.0563 20C18.0563 19.8675 18.03 19.7363 17.9788 19.614C17.9277 19.4917 17.8527 19.3809 17.7584 19.2878C17.664 19.1948 17.5521 19.1214 17.4291 19.072C17.3061 19.0226 17.1746 18.9981 17.0421 19H12.0421Z" fill="url(#paint0_linear_703_576)"/>
<defs>
<linearGradient id="paint0_linear_703_576" x1="21.0563" y1="21.0001" x2="21.0563" y2="2.99989" gradientUnits="userSpaceOnUse">
<stop stop-color="#D1FDFF"/>
<stop offset="1" stop-color="#FDDB92"/>
</linearGradient>
</defs>
</svg>
