<svg width="25" height="25" viewBox="0 0 25 25" fill="none" xmlns="http://www.w3.org/2000/svg">
<path d="M20.7784 14.0122C20.934 13.3295 21.0095 12.6309 21.0035 11.9307C20.9659 6.97054 16.8591 2.95743 11.9083 3.00431C9.79331 3.02662 7.7537 3.793 6.14735 5.169C4.54099 6.545 3.4705 8.44273 3.12368 10.5292C2.77686 12.6157 3.17588 14.7577 4.25071 16.5794C5.32555 18.4011 7.00755 19.786 9.00162 20.4914C9.34082 20.6136 9.7045 20.6521 10.0618 20.6037C10.4191 20.5554 10.7594 20.4215 11.0539 20.2135C11.3484 20.0055 11.5884 19.7295 11.7534 19.409C11.9185 19.0885 12.0038 18.7328 12.0021 18.3723V18.0066C12.0008 17.7107 12.0582 17.4176 12.1708 17.144C12.2835 16.8704 12.4492 16.6218 12.6584 16.4126C12.8676 16.2034 13.1162 16.0377 13.3898 15.925C13.6634 15.8124 13.9566 15.755 14.2524 15.7563H18.5843C19.0934 15.7566 19.5875 15.5843 19.986 15.2675C20.3845 14.9508 20.6639 14.5083 20.7784 14.0122V14.0122Z" stroke="#C1C0BE" stroke-width="1.50023" stroke-linecap="round" stroke-linejoin="round"/>
<path d="M12.0016 8.25498C12.6231 8.25498 13.1268 7.75123 13.1268 7.12981C13.1268 6.5084 12.6231 6.00464 12.0016 6.00464C11.3802 6.00464 10.8765 6.5084 10.8765 7.12981C10.8765 7.75123 11.3802 8.25498 12.0016 8.25498Z" fill="#C1C0BE"/>
<path d="M7.78276 10.6927C8.40418 10.6927 8.90794 10.189 8.90794 9.56755C8.90794 8.94614 8.40418 8.44238 7.78276 8.44238C7.16135 8.44238 6.65759 8.94614 6.65759 9.56755C6.65759 10.189 7.16135 10.6927 7.78276 10.6927Z" fill="#C1C0BE"/>
<path d="M7.78276 15.5685C8.40418 15.5685 8.90794 15.0647 8.90794 14.4433C8.90794 13.8219 8.40418 13.3181 7.78276 13.3181C7.16135 13.3181 6.65759 13.8219 6.65759 14.4433C6.65759 15.0647 7.16135 15.5685 7.78276 15.5685Z" fill="#C1C0BE"/>
<path d="M16.2219 10.6927C16.8433 10.6927 17.347 10.189 17.347 9.56755C17.347 8.94614 16.8433 8.44238 16.2219 8.44238C15.6004 8.44238 15.0967 8.94614 15.0967 9.56755C15.0967 10.189 15.6004 10.6927 16.2219 10.6927Z" fill="#C1C0BE"/>
</svg>
