<svg width="25" height="24" viewBox="0 0 25 24" fill="none" xmlns="http://www.w3.org/2000/svg">
<g clip-path="url(#clip0_1575_2039)">
<path d="M24.0418 13.0763C24.0418 13.95 21.4805 15.1706 17.3105 15.1706C16.2924 15.1706 15.3193 15.0938 14.4118 14.9456C14.4268 14.8631 14.4437 14.7825 14.4437 14.6981V12.3131C15.3512 12.4519 16.3112 12.525 17.3105 12.525C19.9205 12.525 22.643 11.9981 24.0418 11.0025V13.0763ZM13.4837 14.6981C13.4837 15.5681 10.9318 16.785 6.77678 16.785C2.62178 16.785 0.0717773 15.57 0.0717773 14.6981V12.6356C1.46678 13.6275 4.17615 14.1506 6.77678 14.1506C9.3774 14.1506 12.0868 13.6275 13.4837 12.6356V14.6981ZM0.0717773 16.2281C1.46865 17.22 4.17803 17.745 6.77678 17.745C9.3774 17.745 12.0868 17.22 13.4837 16.2281V18.2906C13.4837 19.1625 10.9318 20.3775 6.77678 20.3775C2.62365 20.3775 0.0717773 19.1625 0.0717773 18.2906V16.2281ZM24.0418 5.865C24.0418 6.73875 21.4805 7.95938 17.3105 7.95938C13.1405 7.95938 10.5793 6.73875 10.5793 5.865V3.79125C11.978 4.78688 14.6987 5.31375 17.3105 5.31375C19.9205 5.31375 22.643 4.78688 24.0418 3.79125V5.865ZM17.3105 0.163126C21.4805 0.163126 24.0418 1.38375 24.0418 2.2575C24.0418 3.13313 21.4805 4.35375 17.3105 4.35375C13.1405 4.35375 10.5793 3.13313 10.5793 2.2575C10.5793 1.38375 13.1387 0.163126 17.3105 0.163126ZM10.5793 7.395C11.978 8.3925 14.6987 8.91938 17.3105 8.91938C19.9205 8.91938 22.643 8.3925 24.0418 7.395V9.47062C24.0418 10.3444 21.4805 11.565 17.3105 11.565C16.3112 11.565 15.3193 11.4844 14.4137 11.3381C14.4268 11.2613 14.4437 11.1862 14.4437 11.1056C14.4437 9.81938 12.7693 8.92125 10.5793 8.44688V7.395ZM6.77678 9.01875C10.9318 9.01875 13.4837 10.2338 13.4837 11.1056C13.4837 11.9756 10.9318 13.1906 6.77678 13.1906C2.62178 13.1906 0.0717773 11.9756 0.0717773 11.1056C0.0717773 10.2338 2.62365 9.01875 6.77678 9.01875ZM6.77678 23.97C2.62365 23.97 0.0717773 22.755 0.0717773 21.8831V19.8206C1.46678 20.8125 4.17615 21.3375 6.77678 21.3375C9.3774 21.3375 12.0868 20.8125 13.4837 19.8206V21.8831C13.4837 22.755 10.9318 23.97 6.77678 23.97ZM17.3105 18.7762C16.298 18.7762 15.3249 18.6994 14.4099 18.5512C14.4268 18.465 14.4437 18.3806 14.4437 18.2906V15.9206C15.3474 16.0575 16.3093 16.1306 17.3105 16.1306C19.9205 16.1306 22.643 15.6038 24.0418 14.6081V16.6819C24.0418 17.5556 21.4805 18.7762 17.3105 18.7762Z" fill="url(#paint0_linear_1575_2039)"/>
</g>
<defs>
<linearGradient id="paint0_linear_1575_2039" x1="24.0418" y1="23.97" x2="24.0418" y2="0.163126" gradientUnits="userSpaceOnUse">
<stop stop-color="#D1FDFF"/>
<stop offset="1" stop-color="#FDDB92"/>
</linearGradient>
<clipPath id="clip0_1575_2039">
<rect width="24" height="24" fill="white" transform="translate(0.0419922)"/>
</clipPath>
</defs>
</svg>
