<svg width="25" height="24" viewBox="0 0 25 24" fill="none" xmlns="http://www.w3.org/2000/svg">
<g clip-path="url(#clip0_1575_2043)">
<path d="M12.0418 4.8C8.78826 4.8 4.3635 5.64758 4.35898 5.64844H4.35742C3.40684 5.84293 2.66445 6.60009 2.48555 7.55625L2.48242 7.55938L0.908984 16.1438L0.910547 16.1453C0.8666 16.3567 0.841797 16.5756 0.841797 16.8C0.841797 18.5672 2.2746 20 4.0418 20C4.99092 20 5.83388 19.5783 6.41992 18.9219L6.43086 18.9281L7.6418 17.6H12.0418H16.4418L17.6527 18.9281L17.6637 18.9219C18.2497 19.5783 19.0927 20 20.0418 20C21.809 20 23.2418 18.5672 23.2418 16.8C23.2418 16.5756 23.217 16.3567 23.173 16.1453L23.1746 16.1438L21.6012 7.55938L21.598 7.55625C21.4191 6.59959 20.6759 5.84244 19.7246 5.64844C19.7241 5.64834 19.7235 5.64854 19.723 5.64844C19.7193 5.64758 15.2953 4.8 12.0418 4.8ZM6.4418 9.6C6.8834 9.6 7.2418 9.9584 7.2418 10.4V11.2H8.0418C8.4834 11.2 8.8418 11.5584 8.8418 12C8.8418 12.4416 8.4834 12.8 8.0418 12.8H7.2418V13.6C7.2418 14.0416 6.8834 14.4 6.4418 14.4C6.0002 14.4 5.6418 14.0416 5.6418 13.6V12.8H4.8418C4.4002 12.8 4.0418 12.4416 4.0418 12C4.0418 11.5584 4.4002 11.2 4.8418 11.2H5.6418V10.4C5.6418 9.9584 6.0002 9.6 6.4418 9.6ZM17.6418 9.6C18.0834 9.6 18.4418 9.9584 18.4418 10.4C18.4418 10.8416 18.0834 11.2 17.6418 11.2C17.2002 11.2 16.8418 10.8416 16.8418 10.4C16.8418 9.9584 17.2002 9.6 17.6418 9.6ZM16.0418 11.2C16.4834 11.2 16.8418 11.5584 16.8418 12C16.8418 12.4416 16.4834 12.8 16.0418 12.8C15.6002 12.8 15.2418 12.4416 15.2418 12C15.2418 11.5584 15.6002 11.2 16.0418 11.2ZM19.2418 11.2C19.6834 11.2 20.0418 11.5584 20.0418 12C20.0418 12.4416 19.6834 12.8 19.2418 12.8C18.8002 12.8 18.4418 12.4416 18.4418 12C18.4418 11.5584 18.8002 11.2 19.2418 11.2ZM17.6418 12.8C18.0834 12.8 18.4418 13.1584 18.4418 13.6C18.4418 14.0416 18.0834 14.4 17.6418 14.4C17.2002 14.4 16.8418 14.0416 16.8418 13.6C16.8418 13.1584 17.2002 12.8 17.6418 12.8Z" fill="#CACACA" fill-opacity="0.68"/>
</g>
<defs>
<clipPath id="clip0_1575_2043">
<rect width="24" height="24" fill="white" transform="translate(0.0419922)"/>
</clipPath>
</defs>
</svg>
