<svg width="25" height="24" viewBox="0 0 25 24" fill="none" xmlns="http://www.w3.org/2000/svg">
<path d="M12.04 4C4.04004 4 1.04004 12 1.04004 12C1.04004 12 4.04004 20 12.04 20C20.04 20 23.04 12 23.04 12C23.04 12 20.04 4 12.04 4ZM12.04 7C14.801 7 17.04 9.239 17.04 12C17.04 14.761 14.801 17 12.04 17C9.27904 17 7.04004 14.761 7.04004 12C7.04004 9.239 9.27904 7 12.04 7ZM12.04 9C11.2444 9 10.4813 9.31607 9.91872 9.87868C9.35611 10.4413 9.04004 11.2044 9.04004 12C9.04004 12.7956 9.35611 13.5587 9.91872 14.1213C10.4813 14.6839 11.2444 15 12.04 15C12.8357 15 13.5988 14.6839 14.1614 14.1213C14.724 13.5587 15.04 12.7956 15.04 12C15.04 11.2044 14.724 10.4413 14.1614 9.87868C13.5988 9.31607 12.8357 9 12.04 9Z" fill="url(#paint0_linear_1575_2064)"/>
<defs>
<linearGradient id="paint0_linear_1575_2064" x1="23.04" y1="20" x2="23.04" y2="4" gradientUnits="userSpaceOnUse">
<stop stop-color="#D1FDFF"/>
<stop offset="1" stop-color="#FDDB92"/>
</linearGradient>
</defs>
</svg>
