<svg width="21" height="20" viewBox="0 0 21 20" fill="none" xmlns="http://www.w3.org/2000/svg">
<path d="M7.04199 0H2.04199C0.938992 0 0.0419922 0.897 0.0419922 2V9C0.0419922 10.103 0.938992 11 2.04199 11H7.04199C8.14499 11 9.04199 10.103 9.04199 9V2C9.04199 0.897 8.14499 0 7.04199 0ZM18.042 0H13.042C11.939 0 11.042 0.897 11.042 2V5C11.042 6.103 11.939 7 13.042 7H18.042C19.145 7 20.042 6.103 20.042 5V2C20.042 0.897 19.145 0 18.042 0ZM7.04199 13H2.04199C0.938992 13 0.0419922 13.897 0.0419922 15V18C0.0419922 19.103 0.938992 20 2.04199 20H7.04199C8.14499 20 9.04199 19.103 9.04199 18V15C9.04199 13.897 8.14499 13 7.04199 13ZM18.042 9H13.042C11.939 9 11.042 9.897 11.042 11V18C11.042 19.103 11.939 20 13.042 20H18.042C19.145 20 20.042 19.103 20.042 18V11C20.042 9.897 19.145 9 18.042 9Z" fill="#CACACA" fill-opacity="0.68"/>
</svg>
