<svg width="25" height="25" viewBox="0 0 25 25" fill="none" xmlns="http://www.w3.org/2000/svg">
<path d="M9.0022 10.5088H16.5033" stroke="#C1C0BE" stroke-width="1.50023" stroke-linecap="round" stroke-linejoin="round"/>
<path d="M9.0022 13.5093H16.5033" stroke="#C1C0BE" stroke-width="1.50023" stroke-linecap="round" stroke-linejoin="round"/>
<path d="M3.00122 18.7601C3.39911 18.7601 3.7807 18.6021 4.06204 18.3207C4.34339 18.0394 4.50145 17.6578 4.50145 17.2599V6.00817C4.50145 5.80923 4.58048 5.61843 4.72115 5.47776C4.86183 5.33709 5.05262 5.25806 5.25156 5.25806H20.2539C20.4528 5.25806 20.6436 5.33709 20.7843 5.47776C20.9249 5.61843 21.004 5.80923 21.004 6.00817V17.2599C21.004 17.6578 20.8459 18.0394 20.5646 18.3207C20.2832 18.6021 19.9016 18.7601 19.5037 18.7601H3.00122Z" stroke="#C1C0BE" stroke-width="1.50023" stroke-linecap="round" stroke-linejoin="round"/>
<path d="M3.00108 18.7601C2.6032 18.7601 2.22161 18.6021 1.94026 18.3207C1.65891 18.0394 1.50085 17.6578 1.50085 17.2599V8.25854" stroke="#C1C0BE" stroke-width="1.50023" stroke-linecap="round" stroke-linejoin="round"/>
</svg>
