<svg width="25" height="25" viewBox="0 0 25 25" fill="none" xmlns="http://www.w3.org/2000/svg">
<path d="M19.5034 5.26538H4.50108C3.67253 5.26538 3.00085 5.93706 3.00085 6.76561V17.2672C3.00085 18.0958 3.67253 18.7674 4.50108 18.7674H19.5034C20.3319 18.7674 21.0036 18.0958 21.0036 17.2672V6.76561C21.0036 5.93706 20.3319 5.26538 19.5034 5.26538Z" stroke="#C1C0BE" stroke-width="1.50023" stroke-linecap="round" stroke-linejoin="round"/>
<path d="M3.00085 11.2662H8.32667C8.49942 11.2653 8.66708 11.3247 8.80063 11.4343C8.93418 11.5439 9.02523 11.6967 9.05803 11.8663C9.20128 12.541 9.57188 13.146 10.1078 13.5801C10.6438 14.0142 11.3125 14.251 12.0022 14.251C12.6919 14.251 13.3607 14.0142 13.8966 13.5801C14.4326 13.146 14.8032 12.541 14.9464 11.8663C14.9792 11.6967 15.0703 11.5439 15.2038 11.4343C15.3374 11.3247 15.505 11.2653 15.6778 11.2662H21.0036" stroke="#C1C0BE" stroke-width="1.50023" stroke-linecap="round" stroke-linejoin="round"/>
<path d="M3.00085 8.26587H21.0036" stroke="#C1C0BE" stroke-width="1.50023" stroke-linecap="round" stroke-linejoin="round"/>
</svg>
