<svg width="25" height="24" viewBox="0 0 25 24" fill="none" xmlns="http://www.w3.org/2000/svg">
<path d="M12.0418 1.6001C12.0418 1.6001 7.2418 4.8001 7.2418 12.0001C7.2418 12.1272 7.25272 12.2545 7.26055 12.3813C6.43329 13.0502 4.8418 14.4829 4.8418 15.636C4.8418 17.0912 6.29648 20.0001 6.29648 20.0001L8.93711 16.6985L9.6418 18.4001H14.4418L15.1465 16.6985L17.7871 20.0001C17.7871 20.0001 19.2418 17.0912 19.2418 15.636C19.2418 14.4829 17.6503 13.0502 16.823 12.3813C16.8309 12.2545 16.8418 12.1272 16.8418 12.0001C16.8418 4.8001 12.0418 1.6001 12.0418 1.6001ZM12.0418 7.2001C12.9258 7.2001 13.6418 7.9161 13.6418 8.8001C13.6418 9.6841 12.9258 10.4001 12.0418 10.4001C11.1578 10.4001 10.4418 9.6841 10.4418 8.8001C10.4418 7.9161 11.1578 7.2001 12.0418 7.2001ZM9.97617 19.2001C9.76897 19.4673 9.6418 19.7743 9.6418 20.1063C9.6418 21.6287 12.0418 23.2001 12.0418 23.2001C12.0418 23.2001 14.4418 21.6495 14.4418 20.1063C14.4418 19.7743 14.3154 19.4681 14.109 19.2001H13.4324C13.4468 19.2617 13.4824 19.3165 13.4824 19.3813C13.4824 20.4685 12.0418 21.0126 12.0418 21.0126C12.0418 21.0126 10.6012 20.4685 10.6012 19.3813C10.6012 19.3173 10.6368 19.2617 10.6512 19.2001H9.97617Z" fill="url(#paint0_linear_1575_1863)"/>
<defs>
<linearGradient id="paint0_linear_1575_1863" x1="19.2418" y1="23.2001" x2="19.2418" y2="1.6001" gradientUnits="userSpaceOnUse">
<stop stop-color="#D1FDFF"/>
<stop offset="1" stop-color="#FDDB92"/>
</linearGradient>
</defs>
</svg>
