<svg width="25" height="25" viewBox="0 0 25 25" fill="none" xmlns="http://www.w3.org/2000/svg">
<path d="M21.0036 4.51891V14.2704C21.0036 14.6683 20.8455 15.0499 20.5642 15.3312C20.2829 15.6126 19.9013 15.7706 19.5034 15.7706H10.502V17.2709C10.5025 17.4189 10.4591 17.5639 10.3773 17.6873C10.2956 17.8108 10.1791 17.9073 10.0426 17.9647C9.95003 18.0015 9.85144 18.0205 9.75189 18.021C9.5527 18.0201 9.36142 17.9429 9.21743 17.8053L6.96709 15.555C6.82623 15.4128 6.74721 15.2207 6.74721 15.0205C6.74721 14.8203 6.82623 14.6283 6.96709 14.4861L9.21743 12.2357C9.32589 12.134 9.46094 12.065 9.60696 12.0368C9.75298 12.0086 9.904 12.0223 10.0426 12.0763C10.1791 12.1337 10.2956 12.2302 10.3773 12.3537C10.4591 12.4772 10.5025 12.6221 10.502 12.7702V14.2704H19.5034V4.51891H9.00177V5.26902C9.00177 5.46796 8.92274 5.65876 8.78207 5.79943C8.64139 5.94011 8.4506 6.01914 8.25166 6.01914C8.05271 6.01914 7.86192 5.94011 7.72125 5.79943C7.58057 5.65876 7.50154 5.46796 7.50154 5.26902V4.51891C7.50154 4.12102 7.6596 3.73943 7.94095 3.45808C8.2223 3.17674 8.60389 3.01868 9.00177 3.01868H19.5034C19.9013 3.01868 20.2829 3.17674 20.5642 3.45808C20.8455 3.73943 21.0036 4.12102 21.0036 4.51891ZM15.7528 18.021C15.5539 18.021 15.3631 18.1 15.2224 18.2407C15.0817 18.3813 15.0027 18.5721 15.0027 18.7711V19.5212H4.50108V9.76971H13.5025V11.2699C13.5032 11.4178 13.5471 11.5621 13.6287 11.6854C13.7103 11.8086 13.8261 11.9054 13.9619 11.9638C14.0544 12.0005 14.153 12.0196 14.2526 12.0201C14.4518 12.0192 14.643 11.942 14.787 11.8044L17.0374 9.55405C17.1782 9.41183 17.2573 9.21976 17.2573 9.01959C17.2573 8.81943 17.1782 8.62735 17.0374 8.48514L14.787 6.23479C14.6798 6.13102 14.5447 6.06069 14.3982 6.03239C14.2517 6.00408 14.1001 6.01903 13.9619 6.07539C13.8254 6.13278 13.7089 6.22929 13.6271 6.35277C13.5454 6.47624 13.502 6.62116 13.5025 6.76925V8.26948H4.50108C4.1032 8.26948 3.72161 8.42754 3.44026 8.70889C3.15891 8.99023 3.00085 9.37182 3.00085 9.76971V19.5212C3.00085 19.9191 3.15891 20.3007 3.44026 20.582C3.72161 20.8634 4.1032 21.0214 4.50108 21.0214H15.0027C15.4006 21.0214 15.7822 20.8634 16.0635 20.582C16.3449 20.3007 16.5029 19.9191 16.5029 19.5212V18.7711C16.5029 18.5721 16.4239 18.3813 16.2832 18.2407C16.1425 18.1 15.9517 18.021 15.7528 18.021Z" fill="#C1C0BE"/>
</svg>
