<svg width="24" height="25" viewBox="0 0 24 25" fill="none" xmlns="http://www.w3.org/2000/svg">
<path d="M14.625 12.9297C14.625 13.4489 14.471 13.9564 14.1826 14.3881C13.8942 14.8197 13.4842 15.1562 13.0045 15.3549C12.5249 15.5536 11.9971 15.6055 11.4879 15.5042C10.9787 15.403 10.511 15.153 10.1438 14.7858C9.77673 14.4187 9.52673 13.951 9.42544 13.4418C9.32415 12.9326 9.37614 12.4048 9.57482 11.9251C9.7735 11.4455 10.11 11.0355 10.5416 10.7471C10.9733 10.4586 11.4808 10.3047 12 10.3047C12.6954 10.3072 13.3617 10.5845 13.8534 11.0763C14.3452 11.568 14.6225 12.2343 14.625 12.9297ZM4.5 10.3047C3.98083 10.3047 3.47331 10.4586 3.04163 10.7471C2.60995 11.0355 2.2735 11.4455 2.07482 11.9251C1.87614 12.4048 1.82415 12.9326 1.92544 13.4418C2.02673 13.951 2.27673 14.4187 2.64385 14.7858C3.01096 15.153 3.47869 15.403 3.98789 15.5042C4.49709 15.6055 5.02489 15.5536 5.50455 15.3549C5.9842 15.1562 6.39417 14.8197 6.68261 14.3881C6.97105 13.9564 7.125 13.4489 7.125 12.9297C7.12253 12.2343 6.84518 11.568 6.35343 11.0763C5.86168 10.5845 5.19543 10.3072 4.5 10.3047ZM19.5 10.3047C18.9808 10.3047 18.4733 10.4586 18.0416 10.7471C17.61 11.0355 17.2735 11.4455 17.0748 11.9251C16.8761 12.4048 16.8242 12.9326 16.9254 13.4418C17.0267 13.951 17.2767 14.4187 17.6438 14.7858C18.011 15.153 18.4787 15.403 18.9879 15.5042C19.4971 15.6055 20.0249 15.5536 20.5045 15.3549C20.9842 15.1562 21.3942 14.8197 21.6826 14.3881C21.971 13.9564 22.125 13.4489 22.125 12.9297C22.1225 12.2343 21.8452 11.568 21.3534 11.0763C20.8617 10.5845 20.1954 10.3072 19.5 10.3047Z" fill="#C1C0BE"/>
</svg>
