<svg width="25" height="24" viewBox="0 0 25 24" fill="none" xmlns="http://www.w3.org/2000/svg">
<path d="M12.0418 1.60001C12.0418 1.60001 7.2418 4.80001 7.2418 12C7.2418 12.1271 7.25272 12.2544 7.26055 12.3813C6.43329 13.0501 4.8418 14.4828 4.8418 15.6359C4.8418 17.0911 6.29648 20 6.29648 20L8.93711 16.6984L9.6418 18.4H14.4418L15.1465 16.6984L17.7871 20C17.7871 20 19.2418 17.0911 19.2418 15.6359C19.2418 14.4828 17.6503 13.0501 16.823 12.3813C16.8309 12.2544 16.8418 12.1271 16.8418 12C16.8418 4.80001 12.0418 1.60001 12.0418 1.60001ZM12.0418 7.20001C12.9258 7.20001 13.6418 7.91601 13.6418 8.80001C13.6418 9.68401 12.9258 10.4 12.0418 10.4C11.1578 10.4 10.4418 9.68401 10.4418 8.80001C10.4418 7.91601 11.1578 7.20001 12.0418 7.20001ZM9.97617 19.2C9.76897 19.4672 9.6418 19.7743 9.6418 20.1063C9.6418 21.6287 12.0418 23.2 12.0418 23.2C12.0418 23.2 14.4418 21.6495 14.4418 20.1063C14.4418 19.7743 14.3154 19.468 14.109 19.2H13.4324C13.4468 19.2616 13.4824 19.3165 13.4824 19.3813C13.4824 20.4685 12.0418 21.0125 12.0418 21.0125C12.0418 21.0125 10.6012 20.4685 10.6012 19.3813C10.6012 19.3173 10.6368 19.2616 10.6512 19.2H9.97617Z" fill="#CACACA" fill-opacity="0.68"/>
</svg>
