<svg width="25" height="25" viewBox="0 0 25 25" fill="none" xmlns="http://www.w3.org/2000/svg">
<path d="M9.00128 15.7633C12.7298 15.7633 15.7523 12.7408 15.7523 9.01226C15.7523 5.28377 12.7298 2.26123 9.00128 2.26123C5.27278 2.26123 2.25024 5.28377 2.25024 9.01226C2.25024 12.7408 5.27278 15.7633 9.00128 15.7633Z" stroke="#C1C0BE" stroke-width="1.50023" stroke-linecap="round" stroke-linejoin="round"/>
<path d="M15.0023 21.7643C18.7307 21.7643 21.7533 18.7417 21.7533 15.0132C21.7533 11.2847 18.7307 8.26221 15.0023 8.26221C11.2738 8.26221 8.25122 11.2847 8.25122 15.0132C8.25122 18.7417 11.2738 21.7643 15.0023 21.7643Z" stroke="#C1C0BE" stroke-width="1.50023" stroke-linecap="round" stroke-linejoin="round"/>
<path d="M11.4855 9.2467L14.7672 12.5285" stroke="#C1C0BE" stroke-width="1.50023" stroke-linecap="round" stroke-linejoin="round"/>
<path d="M9.23572 11.4969L12.5175 14.7787" stroke="#C1C0BE" stroke-width="1.50023" stroke-linecap="round" stroke-linejoin="round"/>
</svg>
