<svg width="330" height="334" viewBox="0 0 330 334" fill="none" xmlns="http://www.w3.org/2000/svg">
<g clip-path="url(#clip0_4934_16413)">
<path d="M338.259 186.075C423.327 260.104 242.4 400.206 162.179 320.917C57.231 217.188 -0.000976562 294.416 -0.000976562 181.425C-0.000976562 68.435 15.5359 97.2496 134.376 46.584C238.012 2.40065 236.217 97.2739 338.259 186.075Z" fill="#DFBD75"/>
<path d="M182.9 156.918C203.167 156.918 219.596 140.432 219.596 120.096L219.595 3.39855L414.612 3.39844L414.612 120.096C414.612 140.432 398.183 156.918 377.917 156.918L182.9 156.918ZM182.9 156.918H182.9H182.9Z" fill="#FEF4DE"/>
<path d="M414.612 3.39844H378.147L225.156 156.918L377.917 156.918C398.184 156.918 414.612 140.432 414.612 120.096L414.612 3.39844Z" fill="#AACFE2"/>
<path d="M321.603 191.3L265.308 137.265V149.189L307.334 191.3H321.603Z" fill="#2E90FA"/>
<path d="M307.334 191.3V382.271H44.1426V191.3" fill="#E1F0FA"/>
<path d="M307.334 191.3H321.603V382.271H307.334V191.3Z" fill="#DFBD75"/>
<path d="M44.1426 382.271L174.153 277.583L307.334 382.271H44.1426Z" fill="white"/>
<path d="M307.334 191.324L177.324 63.8784L44.1426 191.289L44.1427 191.299L174.153 317.357L307.334 191.299V191.324Z" fill="#F9D015"/>
<path d="M219.596 3.39844H414.612V29.1207H219.596V3.39844Z" fill="#DFBD75"/>
<path d="M303.44 58.854C323.706 58.854 340.135 75.3398 340.135 95.6759V120.093C340.135 140.429 356.564 156.915 376.83 156.915H243.011V59.1323L303.44 58.854Z" fill="#654602"/>
<path d="M112.95 58.854C92.6838 58.854 76.2549 75.3398 76.2549 95.6759V222.436L174.153 317.358L266.745 229.718V95.6759C266.745 75.3397 283.174 58.854 303.44 58.854H112.95Z" fill="white"/>
<path d="M257.965 58.854L85.7607 231.653L174.153 317.358L266.745 229.718V95.6759C266.745 75.3397 283.174 58.854 303.44 58.854H257.965Z" fill="#CFDDF7"/>
<path d="M41.8594 189.001C41.5105 189.337 41.2329 189.741 41.0432 190.188C40.8536 190.634 40.7558 191.115 40.7559 191.6V382.271C40.7559 382.284 40.7588 382.296 40.7596 382.308C40.7676 383.062 41.0103 383.828 41.5863 384.489C42.2685 385.272 43.2927 385.67 44.3292 385.67H321.604C323.474 385.67 324.991 384.148 324.991 382.271V191.3C324.991 190.345 324.595 189.485 323.963 188.867C323.955 188.859 323.953 188.851 323.945 188.844L294.221 160.313L377.917 160.316C400.054 160.316 417.999 142.308 417.999 120.095V3.39812C417.999 1.52109 416.483 -0.000488281 414.612 -0.000488281H219.595C217.724 -0.000488281 216.208 1.52109 216.208 3.39812V55.4551H112.951C90.8139 55.4551 72.8684 73.4625 72.8684 95.6758V159.113L41.8594 189.001ZM79.6423 95.6758C79.6423 77.2459 94.5841 62.2525 112.951 62.2525L281.022 62.3557C270.374 69.5933 263.358 81.827 263.358 95.6758V228.251L174.181 312.659L79.6423 220.993V95.6758ZM270.132 160.313H270.853L302.431 191.269L270.132 221.84V160.313H270.132ZM72.8684 168.504V214.425L49.0288 191.311L72.8684 168.504ZM47.5297 199.309L146.624 295.392L47.5297 375.186V199.309ZM53.7752 378.872L151.535 300.153L171.8 319.802C172.431 320.415 173.275 320.757 174.153 320.756C175.017 320.757 175.849 320.426 176.477 319.83L197.315 300.107L297.519 378.872H53.7752V378.872ZM202.298 295.39L303.948 199.177V375.292L202.298 295.39ZM318.217 378.872H310.722V194.698H318.217V378.872ZM313.163 187.901H308.737L281.204 160.313H284.421L313.163 187.901ZM273.612 153.516L270.132 150.105V95.6758C270.132 77.2466 285.073 62.2537 303.438 62.2525H303.449C321.811 62.2579 336.749 77.2497 336.749 95.6758V120.092C336.749 134.005 343.826 146.291 354.556 153.516H273.612V153.516ZM411.225 120.095C411.225 138.525 396.283 153.519 377.916 153.519H376.859C376.85 153.518 376.84 153.516 376.831 153.516C358.465 153.516 343.523 138.522 343.523 120.092V95.6758C343.523 73.4979 325.542 55.4551 303.44 55.4551H222.982V32.5193H411.225V120.095ZM411.225 25.722H222.982V6.79684H411.225V25.722H411.225Z" fill="#654602"/>
<path d="M104.659 107.507H235.903V148.164H104.659V107.507Z" fill="#F9D015"/>
<path d="M168.964 148.164H235.903V107.507H209.481L168.964 148.164Z" fill="#DDB510"/>
<path d="M235.902 151.563H104.658C102.788 151.563 101.271 150.041 101.271 148.164V107.507C101.271 105.63 102.788 104.108 104.658 104.108H235.902C237.772 104.108 239.289 105.63 239.289 107.507V148.164C239.289 150.041 237.772 151.563 235.902 151.563ZM108.045 144.765H232.515V110.906H108.045V144.765Z" fill="#654602"/>
<path d="M235.902 173.821H104.658C102.788 173.821 101.271 172.299 101.271 170.423C101.271 168.546 102.788 167.024 104.658 167.024H235.902C237.772 167.024 239.289 168.546 239.289 170.423C239.289 172.299 237.772 173.821 235.902 173.821Z" fill="#654602"/>
<path d="M235.902 196.533H104.658C102.788 196.533 101.271 195.011 101.271 193.134C101.271 191.257 102.788 189.735 104.658 189.735H235.902C237.772 189.735 239.289 191.257 239.289 193.134C239.289 195.011 237.772 196.533 235.902 196.533Z" fill="#654602"/>
<path d="M235.902 219.245H104.658C102.788 219.245 101.271 217.723 101.271 215.846C101.271 213.969 102.788 212.448 104.658 212.448H235.902C237.772 212.448 239.289 213.969 239.289 215.846C239.289 217.723 237.772 219.245 235.902 219.245Z" fill="#654602"/>
</g>
<defs>
<clipPath id="clip0_4934_16413">
<rect width="418" height="431" fill="white"/>
</clipPath>
</defs>
</svg>
