<svg width="25" height="25" viewBox="0 0 25 25" fill="none" xmlns="http://www.w3.org/2000/svg">
<rect width="24.0037" height="24.0037" rx="12.0018" fill="#21201B"/>
<path d="M17.4998 6.5H12.4998V5.5C12.4998 5.36739 12.4471 5.24021 12.3533 5.14645C12.2595 5.05268 12.1324 5 11.9998 5C11.8671 5 11.74 5.05268 11.6462 5.14645C11.5524 5.24021 11.4998 5.36739 11.4998 5.5V6.5H6.49976C6.23454 6.5 5.98019 6.60536 5.79265 6.79289C5.60511 6.98043 5.49976 7.23478 5.49976 7.5V15C5.49976 15.2652 5.60511 15.5196 5.79265 15.7071C5.98019 15.8946 6.23454 16 6.49976 16H8.96226L7.61226 17.6875C7.55353 17.7608 7.51666 17.8493 7.50587 17.9426C7.49508 18.0359 7.51081 18.1304 7.55126 18.2152C7.59171 18.3001 7.65524 18.3718 7.73456 18.4221C7.81388 18.4725 7.9058 18.4995 7.99976 18.5C8.07439 18.5005 8.14814 18.4838 8.21532 18.4513C8.28251 18.4188 8.34133 18.3713 8.38726 18.3125L10.2373 16H13.7623L15.6123 18.3125C15.6582 18.3713 15.717 18.4188 15.7842 18.4513C15.8514 18.4838 15.9251 18.5005 15.9998 18.5C16.0937 18.4995 16.1856 18.4725 16.265 18.4221C16.3443 18.3718 16.4078 18.3001 16.4483 18.2152C16.4887 18.1304 16.5044 18.0359 16.4936 17.9426C16.4829 17.8493 16.446 17.7608 16.3873 17.6875L15.0373 16H17.4998C17.765 16 18.0193 15.8946 18.2069 15.7071C18.3944 15.5196 18.4998 15.2652 18.4998 15V7.5C18.4998 7.23478 18.3944 6.98043 18.2069 6.79289C18.0193 6.60536 17.765 6.5 17.4998 6.5ZM10.4998 13C10.4998 13.1326 10.4471 13.2598 10.3533 13.3536C10.2595 13.4473 10.1324 13.5 9.99976 13.5C9.86715 13.5 9.73997 13.4473 9.6462 13.3536C9.55243 13.2598 9.49976 13.1326 9.49976 13V11.5C9.49976 11.3674 9.55243 11.2402 9.6462 11.1464C9.73997 11.0527 9.86715 11 9.99976 11C10.1324 11 10.2595 11.0527 10.3533 11.1464C10.4471 11.2402 10.4998 11.3674 10.4998 11.5V13ZM12.4998 13C12.4998 13.1326 12.4471 13.2598 12.3533 13.3536C12.2595 13.4473 12.1324 13.5 11.9998 13.5C11.8671 13.5 11.74 13.4473 11.6462 13.3536C11.5524 13.2598 11.4998 13.1326 11.4998 13V10.5C11.4998 10.3674 11.5524 10.2402 11.6462 10.1464C11.74 10.0527 11.8671 10 11.9998 10C12.1324 10 12.2595 10.0527 12.3533 10.1464C12.4471 10.2402 12.4998 10.3674 12.4998 10.5V13ZM14.4998 13C14.4998 13.1326 14.4471 13.2598 14.3533 13.3536C14.2595 13.4473 14.1324 13.5 13.9998 13.5C13.8671 13.5 13.74 13.4473 13.6462 13.3536C13.5524 13.2598 13.4998 13.1326 13.4998 13V9.5C13.4998 9.36739 13.5524 9.24022 13.6462 9.14645C13.74 9.05268 13.8671 9 13.9998 9C14.1324 9 14.2595 9.05268 14.3533 9.14645C14.4471 9.24022 14.4998 9.36739 14.4998 9.5V13Z" fill="white"/>
</svg>
