<svg width="37" height="36" viewBox="0 0 37 36" fill="none" xmlns="http://www.w3.org/2000/svg">
<g clip-path="url(#clip0_2263_1757)">
<path d="M19.6756 36.0001H16.8723C16.7983 35.9707 16.7221 35.947 16.6445 35.9293C15.9636 35.8227 15.2763 35.75 14.6024 35.6102C5.0067 33.655 -1.31854 24.0707 0.650122 14.4859C2.72535 4.38733 12.5904 -1.89515 22.5906 0.5151C29.6989 2.2285 35.1173 8.22255 36.1249 15.4852C36.1779 15.8681 36.243 16.251 36.303 16.6339V19.4372C36.2334 19.8839 36.1658 20.3261 36.0949 20.7703C34.8333 28.6526 28.7346 34.6511 20.7892 35.8272C20.4171 35.8821 20.0464 35.9421 19.6756 36.0001ZM16.8825 15.0723C17.7637 14.5618 18.5761 14.0845 19.3967 13.6225C19.5722 13.5242 19.622 13.4074 19.6188 13.2173C19.6086 12.5906 19.5869 11.9627 19.6188 11.3379C19.6692 10.4343 19.2666 9.83704 18.5027 9.398C16.7555 8.39293 15.0306 7.3483 13.2821 6.34578C12.5859 5.94694 11.8354 5.94886 11.1386 6.34578C9.25224 7.43062 7.38058 8.53587 5.50317 9.63475C4.95437 9.95382 4.67359 10.4267 4.67359 11.0731C4.67934 13.2288 4.69529 15.3844 4.66657 17.5394C4.65509 18.3958 5.01563 18.9643 5.73354 19.3759C7.52884 20.4051 9.31818 21.4435 11.1016 22.4913C11.808 22.9081 12.4793 22.8927 13.1742 22.4882C16.5853 20.5027 19.9974 18.5194 23.4106 16.5381C24.0622 16.1584 24.7029 16.1853 25.3404 16.5522C26.288 17.0972 27.2286 17.653 28.1769 18.1967C28.8055 18.5572 29.1131 19.0901 29.1105 19.8156C29.1067 20.9305 29.1003 22.0459 29.1105 23.1601C29.1182 23.9131 28.7997 24.4587 28.1565 24.8365C27.2599 25.363 26.3633 25.8901 25.4763 26.4357C24.7788 26.8652 24.0966 26.846 23.4043 26.4427C22.5517 25.9456 21.7151 25.4217 20.8421 24.9609C20.0094 24.5213 19.6386 23.8665 19.6858 22.9266C19.7165 22.3056 19.6916 21.6815 19.6916 21.0306C19.6387 21.0445 19.5868 21.0622 19.5365 21.0836C18.7369 21.5443 17.9341 22 17.1441 22.4773C17.0471 22.536 16.975 22.7128 16.9712 22.8366C16.9546 23.4837 16.9712 24.132 16.961 24.7797C16.9469 25.5563 17.2864 26.1198 17.9501 26.5027C19.8135 27.5833 21.6766 28.6632 23.5395 29.7425C23.648 29.8063 23.7712 29.8784 23.8899 29.8823C24.5223 29.9059 25.1272 29.9116 25.7233 29.5479C27.4431 28.4975 29.2005 27.5058 30.9452 26.4989C31.589 26.1268 31.9145 25.5953 31.9094 24.8346C31.8941 22.636 31.8941 20.438 31.9094 18.2407C31.9139 17.489 31.5807 16.9644 30.9522 16.602C29.136 15.5458 27.3148 14.5038 25.5044 13.4336C24.7635 12.9946 24.0686 13.0316 23.3462 13.4553C19.9249 15.4612 16.5002 17.4639 13.0721 19.4634C12.4429 19.8309 11.8118 19.8054 11.1992 19.4449C10.2114 18.8642 9.23438 18.2656 8.25483 17.6702C7.76155 17.3703 7.43546 16.9351 7.42525 16.3537C7.39717 15.0813 7.39909 13.8082 7.41568 12.5351C7.42334 11.9142 7.75006 11.4458 8.27589 11.1312C9.25161 10.5511 10.2369 9.98636 11.2184 9.41651C11.8705 9.03809 12.5195 9.0834 13.1506 9.45862C14.09 10.017 15.0166 10.5964 15.9585 11.1535C16.5966 11.5287 16.9055 12.0641 16.8927 12.805C16.8748 13.5351 16.8825 14.2657 16.8825 15.0723Z" fill="#8247E4"/>
<path d="M16.8837 15.0732C16.8837 14.2666 16.8735 13.536 16.8837 12.8059C16.8965 12.065 16.5844 11.5296 15.9495 11.1544C15.0089 10.5973 14.0823 10.0179 13.1417 9.45952C12.5105 9.0843 11.8616 9.03899 11.2094 9.4174C10.2279 9.98726 9.24263 10.552 8.26691 11.1321C7.74109 11.4441 7.41436 11.9125 7.4067 12.536C7.39011 13.8123 7.3882 15.0822 7.41627 16.3546C7.42967 16.936 7.75576 17.3712 8.24585 17.6711C9.2254 18.2665 10.2024 18.8651 11.1902 19.4458C11.8028 19.8063 12.434 19.8318 13.0632 19.4643C16.4887 17.4648 19.9134 15.4636 23.3372 13.4607C24.0596 13.0369 24.7545 12.9999 25.4954 13.439C27.3026 14.5091 29.1271 15.5512 30.9432 16.6073C31.5692 16.9717 31.9004 17.4943 31.9004 18.2461C31.8855 20.4438 31.8855 22.6418 31.9004 24.84C31.9055 25.6006 31.5813 26.1322 30.9362 26.5042C29.1998 27.5112 27.4443 28.5003 25.7245 29.5507C25.1285 29.9144 24.5235 29.9087 23.8911 29.8851C23.7724 29.8813 23.6493 29.8085 23.5408 29.7453C21.677 28.6677 19.8138 27.5878 17.9513 26.5055C17.2877 26.1226 16.9482 25.5572 16.9622 24.7825C16.9737 24.1348 16.9558 23.4865 16.9724 22.8394C16.9762 22.7156 17.0484 22.5388 17.1453 22.4801C17.9354 22.0028 18.7407 21.5472 19.5377 21.0864C19.5881 21.065 19.6399 21.0473 19.6928 21.0335C19.6928 21.6844 19.7177 22.3097 19.6871 22.9294C19.6398 23.8706 20.0119 24.5247 20.8555 24.9663C21.7285 25.4245 22.5651 25.951 23.4176 26.4481C24.11 26.8514 24.7922 26.8705 25.4897 26.4411C26.3748 25.8954 27.2713 25.3683 28.1698 24.8419C28.8131 24.4641 29.1315 23.9185 29.1239 23.1655C29.1111 22.0513 29.1175 20.9358 29.1239 19.821C29.1239 19.098 28.8188 18.5626 28.1903 18.202C27.242 17.6583 26.3014 17.1025 25.3537 16.5575C24.7156 16.1906 24.0775 16.1638 23.424 16.5435C20.0104 18.5277 16.5965 20.5104 13.1825 22.4916C12.4876 22.8962 11.8162 22.9115 11.1098 22.4948C9.32899 21.4431 7.53965 20.4047 5.7418 19.3794C5.02389 18.9678 4.66334 18.3992 4.67483 17.5428C4.70354 15.3878 4.68759 13.2322 4.68185 11.0766C4.68185 10.4301 4.96007 9.95918 5.51143 9.6382C7.38883 8.53932 9.2605 7.43151 11.1468 6.34923C11.8437 5.94975 12.5941 5.94784 13.2903 6.34923C15.0388 7.35175 16.7637 8.39638 18.511 9.40145C19.2767 9.84049 19.6775 10.4378 19.6271 11.3414C19.5926 11.9661 19.6143 12.5941 19.6271 13.2207C19.6303 13.4122 19.5805 13.5277 19.405 13.6259C18.5799 14.0854 17.7675 14.5634 16.8837 15.0732Z" fill="#FDFDFE"/>
</g>
<defs>
<clipPath id="clip0_2263_1757">
<rect width="36.0121" height="36" fill="white" transform="translate(0.291992 0.00100708)"/>
</clipPath>
</defs>
</svg>
