<svg width="25" height="25" viewBox="0 0 25 25" fill="none" xmlns="http://www.w3.org/2000/svg">
<path d="M18.7463 2.56787C17.9507 2.56787 17.1876 2.88394 16.625 3.44655C16.0624 4.00916 15.7463 4.77222 15.7463 5.56787C15.7469 5.75602 15.7653 5.9437 15.801 6.12842L8.68579 10.2788C8.14385 9.81972 7.4566 9.56779 6.74634 9.56787C5.95069 9.56787 5.18763 9.88394 4.62502 10.4466C4.06241 11.0092 3.74634 11.7722 3.74634 12.5679C3.74634 13.3635 4.06241 14.1266 4.62502 14.6892C5.18763 15.2518 5.95069 15.5679 6.74634 15.5679C7.4555 15.5665 8.14124 15.3139 8.68188 14.855L15.801 19.0073C15.7653 19.192 15.7469 19.3797 15.7463 19.5679C15.7463 20.3635 16.0624 21.1266 16.625 21.6892C17.1876 22.2518 17.9507 22.5679 18.7463 22.5679C19.542 22.5679 20.305 22.2518 20.8677 21.6892C21.4303 21.1266 21.7463 20.3635 21.7463 19.5679C21.7463 18.7722 21.4303 18.0092 20.8677 17.4466C20.305 16.8839 19.542 16.5679 18.7463 16.5679C18.0365 16.5688 17.35 16.8214 16.8088 17.2808L9.69165 13.1284C9.72742 12.9437 9.74573 12.756 9.74634 12.5679C9.74573 12.3797 9.72742 12.192 9.69165 12.0073L16.8069 7.85693C17.3488 8.31603 18.0361 8.56795 18.7463 8.56787C19.542 8.56787 20.305 8.2518 20.8677 7.68919C21.4303 7.12658 21.7463 6.36352 21.7463 5.56787C21.7463 4.77222 21.4303 4.00916 20.8677 3.44655C20.305 2.88394 19.542 2.56787 18.7463 2.56787Z" fill="white"/>
</svg>
