<svg width="25" height="25" viewBox="0 0 25 25" fill="none" xmlns="http://www.w3.org/2000/svg">
<rect x="0.00366211" y="0.00183105" width="24" height="24" rx="12" fill="#21201B"/>
<path d="M17.4998 8.49988H7.49976C7.36715 8.49988 7.23997 8.4472 7.1462 8.35343C7.05243 8.25966 6.99976 8.13249 6.99976 7.99988C6.99976 7.86727 7.05243 7.74009 7.1462 7.64632C7.23997 7.55256 7.36715 7.49988 7.49976 7.49988H15.9998C16.1324 7.49988 16.2595 7.4472 16.3533 7.35343C16.4471 7.25966 16.4998 7.13249 16.4998 6.99988C16.4998 6.86727 16.4471 6.74009 16.3533 6.64632C16.2595 6.55256 16.1324 6.49988 15.9998 6.49988H7.49976C7.10244 6.50152 6.72186 6.66009 6.44091 6.94104C6.15996 7.22198 6.0014 7.60256 5.99976 7.99988V15.9999C6.0014 16.3972 6.15996 16.7778 6.44091 17.0587C6.72186 17.3397 7.10244 17.4982 7.49976 17.4999H17.4998C17.765 17.4999 18.0193 17.3945 18.2069 17.207C18.3944 17.0194 18.4998 16.7651 18.4998 16.4999V9.49988C18.4998 9.23466 18.3944 8.98031 18.2069 8.79277C18.0193 8.60523 17.765 8.49988 17.4998 8.49988ZM15.2498 13.7499C15.1014 13.7499 14.9564 13.7059 14.8331 13.6235C14.7097 13.5411 14.6136 13.4239 14.5568 13.2869C14.5001 13.1498 14.4852 12.999 14.5142 12.8536C14.5431 12.7081 14.6145 12.5744 14.7194 12.4695C14.8243 12.3647 14.958 12.2932 15.1034 12.2643C15.2489 12.2353 15.3997 12.2502 15.5368 12.307C15.6738 12.3637 15.7909 12.4599 15.8734 12.5832C15.9558 12.7065 15.9998 12.8515 15.9998 12.9999C15.9998 13.1988 15.9207 13.3896 15.7801 13.5302C15.6394 13.6709 15.4487 13.7499 15.2498 13.7499Z" fill="white"/>
</svg>
