<svg width="19" height="19" viewBox="0 0 19 19" fill="none" xmlns="http://www.w3.org/2000/svg">
<g clip-path="url(#clip0_1575_1549)">
<path d="M9.65408 1.3479C5.01539 1.3479 1.25537 5.10792 1.25537 9.74661C1.25537 14.3853 5.01539 18.1453 9.65408 18.1453C14.2928 18.1453 18.0528 14.3853 18.0528 9.74661C18.0528 5.10792 14.2928 1.3479 9.65408 1.3479ZM9.65408 2.07822C13.1203 2.07822 16.053 4.39186 16.9987 7.55564H16.2327C15.9688 6.76969 15.5694 6.04793 15.0616 5.41603C14.5838 5.63855 14.0531 5.83254 13.4712 5.98659C13.6295 6.48298 13.7607 7.00648 13.8534 7.55564H13.1146C13.0275 7.06353 12.9077 6.59567 12.7651 6.15348C11.9064 6.33036 10.9749 6.43021 10.0192 6.4516V7.55564H9.28892V6.4516C8.33465 6.43021 7.40321 6.32893 6.54451 6.15205C6.40044 6.59567 6.28062 7.06353 6.19361 7.55564H5.45473C5.54887 7.00648 5.67867 6.48298 5.83701 5.98659C5.25646 5.83111 4.72298 5.63855 4.24513 5.41603C3.73875 6.04935 3.33936 6.76969 3.07547 7.55564H2.30806C3.2552 4.39186 6.1879 2.07822 9.65408 2.07822ZM9.28892 2.84563C8.83532 2.93407 8.39599 3.18512 7.9809 3.6002C7.51161 4.06807 7.11507 4.70853 6.79983 5.46167C7.58008 5.6143 8.42309 5.70131 9.28892 5.72128V2.84563ZM10.0192 2.84563V5.72128C10.8865 5.70131 11.7281 5.6143 12.5083 5.46025C12.1902 4.69997 11.788 4.0538 11.313 3.58451C10.9022 3.17941 10.4671 2.93407 10.0192 2.84563ZM7.35613 3.20366C6.36906 3.55171 5.48326 4.11942 4.75721 4.84546C5.16231 5.01948 5.6045 5.17354 6.08377 5.29763C6.42041 4.46604 6.84833 3.74712 7.35613 3.20366ZM11.9492 3.20366C12.4584 3.74712 12.8863 4.46604 13.2244 5.29763C13.7037 5.17354 14.1473 5.02091 14.551 4.84546C13.8249 4.11942 12.9391 3.55171 11.9492 3.20366ZM1.98569 8.28597H2.7531L3.31226 10.2929L3.98838 8.28597H4.87988L5.5289 10.3272L6.09947 8.28597H6.85261L5.95254 11.2073H5.15803L4.41915 9.02342L3.68312 11.2073H2.8715L1.98569 8.28597ZM7.22062 8.28597H7.98661L8.54576 10.2929L9.22473 8.28597H10.1148L10.7653 10.3272L11.333 8.28597H12.0875L11.1875 11.2073H10.393L9.65408 9.02342L8.91805 11.2073H8.10643L7.22062 8.28597ZM12.437 8.28597H13.2073L13.7679 10.2929L14.4483 8.28597H15.3426L15.9945 10.3272L16.565 8.28597H17.3225L16.4181 11.2073H15.6222L14.8805 9.02342L14.1401 11.2073H13.3257L12.437 8.28597ZM13.1146 11.9376H13.8534C13.7593 12.4867 13.6295 13.0102 13.4712 13.5066C14.0517 13.6621 14.5852 13.8547 15.063 14.0772C15.5694 13.4439 15.9702 12.7221 16.2327 11.9376H16.9987C16.053 15.0999 13.1203 17.415 9.65408 17.415C6.1879 17.415 3.2552 15.1014 2.30806 11.9376H3.07547C3.33936 12.7235 3.73875 13.4453 4.24656 14.0772C4.7244 13.8547 5.25503 13.6607 5.83701 13.5066C5.67867 13.0102 5.54744 12.4867 5.45473 11.9376H6.19361C6.28062 12.4297 6.40044 12.8976 6.54308 13.3397C7.40178 13.1629 8.33323 13.063 9.28892 13.0416V11.9376H10.0192V13.0416C10.9735 13.063 11.905 13.1643 12.7637 13.3412C12.9077 12.8976 13.0275 12.4297 13.1146 11.9376ZM9.28892 13.7719C8.42594 13.7919 7.58864 13.8789 6.81267 14.0316C7.41462 15.4594 8.29899 16.4479 9.28892 16.6462V13.7719ZM10.0192 13.7719V16.6462C10.4728 16.5577 10.9122 16.3067 11.3273 15.8916C11.7966 15.4252 12.1931 14.7847 12.5083 14.0316C11.7281 13.8789 10.8851 13.7919 10.0192 13.7719ZM13.2244 14.1956C12.8878 15.0272 12.4598 15.7461 11.952 16.2896C12.9391 15.9415 13.8249 15.3738 14.551 14.6478C14.1459 14.4737 13.7037 14.3197 13.2244 14.1956ZM6.07236 14.197C5.59737 14.3225 5.15661 14.4723 4.75579 14.6463C5.47755 15.3667 6.35479 15.9315 7.33474 16.281C6.83549 15.7447 6.409 15.0329 6.07236 14.197Z" fill="white"/>
</g>
<defs>
<clipPath id="clip0_1575_1549">
<rect width="18.2581" height="18.2581" fill="white" transform="translate(0.524902 0.617676)"/>
</clipPath>
</defs>
</svg>
